<svg xmlns="http://www.w3.org/2000/svg" xmlns:xlink="http://www.w3.org/1999/xlink" xmlns:lucid="lucid" width="1571" height="760"><g transform="translate(-3507 -1896)" lucid:page-tab-id="0_0"><path d="M3392 0h5152v2656H3392z" fill="#fff"/><path d="M3950.63 1985.75H4247v632.33h-296.37z" fill-opacity="0"/><path d="M3978.86 1985.75h28.22m14.1 0h28.24m14.1 0h28.23m14.12 0h28.22m14.1 0h28.23m14.1 0h28.23m14.1 0H4247v15.05m0 15.06v30.1m0 15.07v30.1m0 15.06v30.1m0 15.06v30.1m0 15.07v30.1m0 15.06v30.1m0 15.06v30.1m0 15.06v30.12m0 15.05v30.1m0 15.06v30.1m0 15.06v30.1m0 15.07v30.1m0 15.06v30.1m0 15.06v15.06h-14.13m-14.1 0h-28.23m-14.1 0h-28.24m-14.1 0h-28.23m-14.12 0h-28.22m-14.1 0h-28.24m-14.12 0h-28.22m-14.1 0h-14.13v-15.06m0-15.05v-30.1m0-15.07v-30.1m0-15.07v-30.1m0-15.06v-30.1m0-15.07v-30.1m0-15.06v-30.12m0-15.05v-30.1m0-15.07v-30.1m0-15.06v-30.1m0-15.07v-30.1m0-15.07v-30.1m0-15.06v-30.1m0-15.07v-30.1m0-15.07v-15.05h14.12" stroke="#999" stroke-width="3" fill="none"/><path d="M4726.27 2298.08h308v320h-308z" stroke="#0078d4" stroke-width="7" fill-opacity="0"/><path d="M4781.97 2378.08h196.6v195.5h-196.6z" stroke="#000" stroke-opacity="0" stroke-width="2" fill="#0078d4" fill-opacity=".16"/><path d="M3526.5 2131.22h144v39.25h-144z" fill="none"/><use xlink:href="#a" transform="matrix(1,0,0,1,3526.4851108556554,2131.220266105164) translate(23.73483768998952 27.585454337002098)"/><path d="M3970.32 1920h240v60h-240z" fill="none"/><use xlink:href="#b" transform="matrix(1,0,0,1,3970.32280909178,1920) translate(2.7776395849711832 24.581818330712785)"/><use xlink:href="#c" transform="matrix(1,0,0,1,3970.32280909178,1920) translate(136.8126177197982 24.581818330712785)"/><use xlink:href="#d" transform="matrix(1,0,0,1,3970.32280909178,1920) translate(5.725130413063411 50.5890903432914)"/><use xlink:href="#e" transform="matrix(1,0,0,1,3970.32280909178,1920) translate(67.99087415651205 50.5890903432914)"/><use xlink:href="#f" transform="matrix(1,0,0,1,3970.32280909178,1920) translate(148.45087194542714 50.5890903432914)"/><path d="M3709 2368.94h148v28.25h-148z" fill-opacity="0"/><use xlink:href="#g" transform="matrix(1,0,0,1,3714,2373.936751185701) translate(5.170789930555557 20.616319444444443)"/><use xlink:href="#h" transform="matrix(1,0,0,1,3714,2373.936751185701) translate(79.498046875 20.616319444444443)"/><path d="M3584 2523.04h216v48.1h-216z" fill="#fff"/><use xlink:href="#i" transform="matrix(1,0,0,1,3589,2528.0388417181657) translate(22.224204009433947 26.269293763102727)"/><use xlink:href="#j" transform="matrix(1,0,0,1,3589,2528.0388417181657) translate(87.45427967767296 26.269293763102727)"/><path d="M3694.3 2521.04v-159.26" stroke="#616161" stroke-width="4" fill="none"/><path d="M3696.3 2523.04h-4V2521h4" fill="#616161"/><path d="M3694.3 2345.5l4.64 14.28h-9.27z" stroke="#616161" stroke-width="4" fill="#616161"/><path d="M4774.13 2035.83h196.6v195.5h-196.6z" stroke="#000" stroke-opacity="0" stroke-width="2" fill="#50e6ff" fill-opacity=".29"/><path d="M4946.1 2055.83h-14.96c-1.22 0-2.23.4-3.04 1.23l-35.3 35.36c-.9.82-1.3 1.82-1.3 3v14.94c0 2.35 1.96 4.3 4.32 4.3h14.96c1.15 0 2.16-.42 3.04-1.24l35.25-35.36c.87-.82 1.28-1.82 1.28-3v-14.94c0-2.35-1.9-4.3-4.25-4.3z" stroke="#000" stroke-opacity="0" stroke-width="3.13" fill="#28a8ea"/><path d="M4946.1 2114.65h-14.96c-1.22 0-2.23-.4-3.04-1.23l-7.14-7.18v-13.35c0-4.25 3.37-7.66 7.62-7.66h13.34l7.15 7.18c.87.82 1.28 1.82 1.28 3v14.94c0 2.35-1.9 4.3-4.25 4.3z" stroke="#000" stroke-opacity="0" stroke-width="3.13" fill="#0078d4"/><path d="M4895.82 2055.83h14.96c1.15 0 2.16.4 3.04 1.23l7.14 7.18v13.35c0 4.23-3.44 7.64-7.68 7.64h-13.35l-7.14-7.18c-.9-.82-1.3-1.82-1.3-3v-14.94c0-2.35 1.96-4.3 4.32-4.3z" stroke="#000" stroke-opacity="0" stroke-width="3.13" fill="#50d9ff"/><path d="M4918.47 2070.95v32.76c-.27 1.36-1.42 2.36-2.83 2.36h-24.13v-38h24.14c1.55 0 2.83 1.3 2.83 2.9z" stroke="#000" stroke-opacity="0" stroke-width="3.13" fill-opacity=".2"/><path d="M4919.68 2070.95v29.82c0 2.23-1.82 4.06-4.04 4.06h-24.13v-37.94h24.14c2.22 0 4.04 1.8 4.04 4.05z" stroke="#000" stroke-opacity="0" stroke-width="3.13" fill-opacity=".1"/><path d="M4918.47 2070.95v29.82c0 1.6-1.28 2.82-2.83 2.82 0 .05 0 .05 0 0h-24.13v-35.54h24.14c1.55 0 2.83 1.3 2.83 2.9z" stroke="#000" stroke-opacity="0" stroke-width="3.13" fill-opacity=".2"/><path d="M4917.25 2070.95v29.82c0 1.6-1.28 2.82-2.83 2.82 0 .05 0 .05 0 0h-22.9v-35.54h22.9c1.55 0 2.83 1.3 2.83 2.9z" stroke="#000" stroke-opacity="0" stroke-width="3.13" fill-opacity=".1"/><path d="M4885.78 2068.06h28.64c1.9 0 2.83 1 2.83 2.9v28.57c0 1.9-.94 2.9-2.83 2.9h-28.64c-1.9 0-2.83-1-2.83-2.9v-28.58c0-1.9.94-2.9 2.83-2.9z" stroke="#000" stroke-opacity="0" stroke-width="3.13" fill="#0078d4"/><path d="M4905.73 2078.95h-8.02v4.7h7.56v3h-7.55v4.88h8.43v3h-12.06v-18.58h11.66z" stroke="#000" stroke-opacity="0" stroke-width="3.13" fill="#fff"/><path d="M4952.7 2212.7h-44.5c-1.87 0-3.36-1.52-3.36-3.36v-19.48l17.08-8.48 21.3 8.48h9.48c1.88 0 3.37 1.5 3.37 3.35v16.14c0 1.84-1.5 3.35-3.37 3.35z" stroke="#000" stroke-opacity="0" stroke-width="2.74" fill="#185c37"/><path d="M4930.38 2167.16l-19.98 7.1-22.7-7.1v-19.48c0-1.84 1.48-3.35 3.36-3.35h36.1c1.8 0 3.38 1.5 3.38 3.35l-.16 19.48z" stroke="#000" stroke-opacity="0" stroke-width="2.74" fill="#33c481"/><path d="M4887.7 2167.16h52.16c1.88 0 3.37 1.5 3.37 3.35v19.5h-52.17c-1.88 0-3.37-1.5-3.37-3.36v-19.48z" stroke="#000" stroke-opacity="0" stroke-width="2.74" fill="#21a366"/><path d="M4904.84 2202.7h10.8c1.66 0 3-1.1 3.22-2.73v-38.07c0-1.85-1.48-3.35-3.2-3.35h-27.97v27.96c0 1.85 1.48 3.36 3.36 3.36h13.78v12.85z" stroke="#000" stroke-opacity="0" stroke-width="2.74" fill-opacity=".1"/><path d="M4915.65 2201.34c2.67 0 4.78-2.12 4.78-4.72v-34.72c0-2.6-2.1-4.72-4.78-4.72h-27.96v29.46c0 1.85 1.48 3.35 3.36 3.35h13.78v11.34h10.8z" stroke="#000" stroke-opacity="0" stroke-width="2.74" fill-opacity=".2"/><path d="M4915.65 2199.84c1.88 0 3.37-1.5 3.37-3.22v-34.72c0-1.85-1.5-3.35-3.2-3.35h-28.13v27.96c0 1.85 1.48 3.36 3.36 3.36h13.78v9.98h10.8z" stroke="#000" stroke-opacity="0" stroke-width="2.74" fill-opacity=".2"/><path d="M4914.32 2199.84c1.8 0 3.37-1.5 3.37-3.22v-34.72c0-1.85-1.58-3.35-3.3-3.35h-26.7v27.96c0 1.85 1.48 3.36 3.36 3.36h13.78v9.98h9.48z" stroke="#000" stroke-opacity="0" stroke-width="2.74" fill-opacity=".1"/><path d="M4881.1 2158.55h33.22c1.8 0 3.37 1.5 3.37 3.35v33.22c0 1.85-1.58 3.35-3.38 3.35h-33.2c-1.9 0-3.38-1.5-3.38-3.35v-33.22c0-1.85 1.5-3.35 3.37-3.35z" stroke="#000" stroke-opacity="0" stroke-width="2.74" fill="url(#k)"/><path d="M4898.34 2167.44c2.12-.14 4.23.47 5.88 1.7 1.33 1.37 2.1 3.3 1.95 5.13 0 1.37-.4 2.6-1 3.9-.72 1.1-1.74 1.98-2.83 2.6-1.4.6-2.9.95-4.4.88h-4.14v7.86h-4.23v-22.06h8.77zm-4.4 10.8h3.62c1.17.13 2.27-.2 3.3-.96.7-.75 1.08-1.78 1.08-2.87 0-2.52-1.4-3.6-4.15-3.6h-3.7l-.15 7.44z" stroke="#000" stroke-opacity="0" stroke-width="2.74" fill="#fff"/><path d="M4831.83 2166.1c0 9.56-7.77 17.28-17.3 17.28-9.6 0-17.37-7.72-17.37-17.3 0-9.55 7.77-17.27 17.36-17.27 9.54 0 17.3 7.73 17.3 17.3" stroke="#000" stroke-opacity="0" stroke-width="16.67" fill="url(#l)"/><path d="M4856.02 2190.92c0 9.57-7.77 17.3-17.37 17.3-9.6 0-17.36-7.73-17.36-17.3 0-9.56 7.76-17.28 17.35-17.28 9.6 0 17.37 7.72 17.37 17.28" stroke="#000" stroke-opacity="0" stroke-width="16.67" fill="url(#m)"/><path d="M4797.22 2167.58c.7 8.26 6.88 14.73 15.12 15.8 9.54 1.2 18.2-5.58 19.37-15.1 1.2-9.5-5.52-18.16-15.06-19.35-9.24 3.1-15.95 9.5-19.42 18.65z" stroke="#000" stroke-opacity="0" stroke-width="16.67" fill-opacity=".05"/><path d="M4855.96 2189.68c-.6-8.62-7.12-15.33-15.72-16.1-9.53-.83-18 6.18-18.83 15.74-.87 9.5 6.13 17.94 15.72 18.83 9-3.2 15.42-9.5 18.84-18.47z" stroke="#000" stroke-opacity="0" stroke-width="16.67" fill-opacity=".05"/><path d="M4798.04 2171.5c1.7 5.23 5.24 8.97 10.36 10.87 9 3.4 18.95-1.2 22.37-10.16 3.35-8.96-1.18-18.94-10.2-22.26-11.3 2.3-19.7 10.33-22.53 21.56z" stroke="#000" stroke-opacity="0" stroke-width="16.67" fill-opacity=".1"/><path d="M4855.2 2185.64c-1.7-5.47-5.54-9.33-10.9-11.17-9.06-3.1-18.95 1.72-22.07 10.75-3.06 9.1 1.7 18.95 10.77 22.04 11.2-2.5 19.43-10.5 22.2-21.62z" stroke="#000" stroke-opacity="0" stroke-width="16.67" fill-opacity=".1"/><path d="M4798.7 2173.16c1.7 3.86 4.34 6.6 8.1 8.5 8.6 4.28 18.96.77 23.26-7.84 4.24-8.56.7-18.95-7.83-23.23-12.06 1.9-21.2 10.62-23.54 22.56z" stroke="#000" stroke-opacity="0" stroke-width="16.67" fill-opacity=".1"/><path d="M4854.55 2183.92c-1.77-4.04-4.6-6.9-8.6-8.8-8.65-3.98-19-.23-23 8.44-4.07 8.67-.3 19 8.4 23.05 11.95-2 20.9-10.74 23.2-22.68z" stroke="#000" stroke-opacity="0" stroke-width="16.67" fill-opacity=".1"/><path d="M4854.07 2178.63c0 15.15-12.3 27.38-27.48 27.38-15.2 0-27.5-12.22-27.5-27.37 0-15.1 12.3-27.4 27.5-27.4 15.17 0 27.47 12.3 27.47 27.4" stroke="#000" stroke-opacity="0" stroke-width="16.67" fill="url(#n)"/><path d="M4818.88 2177.68c-1.18-.77-2-1.67-2.7-2.85-.72-1.25-1-2.5-.95-3.92-.06-1.84.53-3.38 1.65-4.8 1.23-1.37 2.6-2.32 4.35-2.92 1.94-.65 3.7-.95 5.7-.95 1.37 0 2.48.06 3.84.3.94.12 1.7.36 2.65.65.82.3 1.4.72 2.06 1.37.4.48.64 1.07.58 1.72.06.72-.17 1.37-.64 1.84-.47.5-1 .73-1.7.73-.42 0-.83-.06-1.25-.3-1-.42-1.88-.77-2.94-1.07-1-.24-1.88-.36-2.88-.36-1.36-.06-2.47.24-3.6.95-.94.54-1.46 1.55-1.4 2.68-.06.7.23 1.36.7 1.84.6.65 1.24 1.07 2 1.48.88.42 2.12.95 3.77 1.67l.53.18c1.7.7 3.12 1.42 4.65 2.43 1.23.77 2.12 1.66 2.88 2.9.77 1.32 1.06 2.63 1.06 4.1.06 1.85-.4 3.4-1.47 4.94-1.06 1.43-2.3 2.38-4 2.97-2 .7-3.83 1-6 .95-2.95.1-5.54-.36-8.25-1.55-.7-.3-1.17-.72-1.64-1.3-.42-.54-.6-1.14-.6-1.8 0-.7.24-1.3.7-1.83.6-.48 1.2-.66 1.9-.66.82 0 1.47.18 2.17.6l2 .95v-.05c.6.3 1.07.4 1.7.6.72.1 1.43.23 2.2.17 1.34.12 2.52-.18 3.64-.95.87-.65 1.28-1.6 1.23-2.67 0-.77-.24-1.43-.77-1.96-.7-.72-1.35-1.25-2.3-1.67-1-.53-2.4-1.18-4.23-1.96-1.7-.7-3.12-1.4-4.65-2.42" stroke="#000" stroke-opacity="0" stroke-width="16.67" fill="#fff"/><path d="M4845.9 2070.5c0 11.9-9.65 21.57-21.56 21.57-11.9 0-21.57-9.66-21.57-21.57 0-11.9 9.66-21.57 21.57-21.57 11.9 0 21.57 9.66 21.57 21.57z" stroke="#000" stroke-opacity="0" stroke-width="15.62" fill="#036c70"/><path d="M4862.9 2089.52c0 10.17-8.28 18.45-18.45 18.45-10.16 0-18.44-8.28-18.44-18.45 0-10.24 8.3-18.44 18.45-18.44 10.17 0 18.45 8.2 18.45 18.44z" stroke="#000" stroke-opacity="0" stroke-width="15.62" fill="#1a9ba1"/><path d="M4841.33 2106.8c0 8.14-6.6 14.75-14.74 14.75-8.15 0-14.75-6.6-14.75-14.74 0-8.13 6.6-14.73 14.74-14.73 8.12 0 14.73 6.6 14.73 14.74z" stroke="#000" stroke-opacity="0" stroke-width="15.62" fill="#37c6d0"/><path d="M4828.1 2064.83h-24.6c-.5 1.9-.73 3.63-.73 5.6 0 11.98 9.66 21.64 21.57 21.64.58 0 1.23-.08 1.8-.08l.1.07c-8.08.2-14.4 6.75-14.4 14.74v1.17h16.27c1.68-.07 3-1.38 3-3.05v-37.1c0-1.68-1.32-3-3-3z" stroke="#000" stroke-opacity="0" stroke-width="15.62" fill-opacity=".1"/><path d="M4825.86 2067.08h-22.8c-.22 1.17-.3 2.18-.3 3.42 0 11.9 9.67 21.57 21.58 21.57.58 0 1.23-.08 1.8-.08l.1.07c-1.1 0-1.98.14-3.06.36-7.92 1.9-12.8 9.8-10.97 17.8h13.66c1.67 0 2.98-1.4 2.98-3.06v-37.04c0-1.67-1.3-3.05-2.98-3.05z" stroke="#000" stroke-opacity="0" stroke-width="15.62" fill-opacity=".2"/><path d="M4825.86 2067.08h-22.8c-.22 1.17-.3 2.18-.3 3.42 0 11.9 9.67 21.57 21.58 21.57.58 0 1.23-.08 1.8-.08l.1.07c-7.64.2-13.8 6.02-14.4 13.58h14.02c1.67 0 2.98-1.3 2.98-2.98v-32.54c0-1.67-1.3-3.05-2.98-3.05z" stroke="#000" stroke-opacity="0" stroke-width="15.62" fill-opacity=".2"/><path d="M4823.54 2067.08h-20.48c-.22 1.17-.3 2.18-.3 3.42 0 11.9 9.67 21.57 21.58 21.57.58 0 1.23-.08 1.8-.08l.1.07c-7.64.2-13.8 6.02-14.4 13.58h11.7c1.67 0 3.05-1.3 3.05-2.98v-32.54c0-1.67-1.4-3.05-3.06-3.05z" stroke="#000" stroke-opacity="0" stroke-width="15.62" fill-opacity=".2"/><path d="M4793.33 2067.08h30.2c1.68 0 3.06 1.38 3.06 3.05v30.2c0 1.68-1.4 3.06-3.06 3.06h-30.2c-1.68 0-3.06-1.4-3.06-3.06v-30.2c0-1.68 1.38-3.06 3.05-3.06z" stroke="#000" stroke-opacity="0" stroke-width="15.62" fill="#03787c"/><path d="M4803.13 2084.88c-.8-.58-1.38-1.17-1.8-2.04h-.1c-.42-.87-.64-1.67-.57-2.68-.07-1.3.3-2.47 1.16-3.5.95-1 1.97-1.66 3.2-2.1 1.52-.5 2.83-.65 4.43-.65 2.03-.06 3.85.16 5.8.8v4.08c-.86-.5-1.66-.8-2.6-1.1-1.1-.2-2.04-.36-3.13-.36-1.1 0-2.1.22-3.12.73-.8.3-1.23 1.02-1.23 1.9 0 .5.14.93.5 1.3.44.43.87.72 1.46 1 .58.3 1.45.74 2.68 1.17.1.08.23.08.38.15 1.23.5 2.25 1.02 3.34 1.67.87.5 1.45 1.16 2.03 2.03.5.95.73 1.9.65 2.98.08 1.38-.3 2.6-1.1 3.7-.78.95-1.8 1.6-3.04 2.04-1.45.42-2.76.64-4.28.57-1.38 0-2.54-.07-3.92-.3-1.16-.2-2.1-.43-3.2-.94v-4.28c1.02.73 2.04 1.16 3.2 1.52 1.23.37 2.32.5 3.56.58 1.16.08 2.18-.14 3.2-.72.72-.36 1.08-1.1 1.08-1.9 0-.57-.22-1.08-.58-1.44-.5-.52-1.02-.88-1.67-1.17-.73-.37-1.74-.88-3.12-1.46h-.08c-1.08-.43-2.03-.94-3.12-1.6z" stroke="#000" stroke-opacity="0" stroke-width="15.62" fill="#fff"/><path d="M4790.28 2048.93h72.62v72.62h-72.62z" stroke="#000" stroke-opacity="0" stroke-width="15.62" fill-opacity="0"/><path d="M4765.52 1985.75H4782v16.35h-16.48v-16.35" stroke="#000" stroke-opacity="0" stroke-width=".95" fill="#ef5326"/><path d="M4783.48 1985.75h16.47v16.35h-16.47v-16.35" stroke="#000" stroke-opacity="0" stroke-width=".95" fill="#81bb41"/><path d="M4783.48 2003.75h16.47v16.35h-16.47v-16.35" stroke="#000" stroke-opacity="0" stroke-width=".95" fill="#fcb615"/><path d="M4765.52 2003.7H4782v16.4h-16.48z" stroke="#000" stroke-opacity="0" stroke-width=".95" fill="#349fd9"/><path d="M4832.23 2013.47h-3.42v-13.6c0-1.1 0-2.48.22-4.1-.2.73-.42 1.32-.64 2l-6.2 15.7h-2.56l-6.2-15.6c-.22-.72-.43-1.33-.65-2.1.22.83.22 2.2.22 4.13v13.57h-3.22v-21.02h4.92l5.34 14c.43.84.65 1.56.86 2.42h.2c.23-1.14.65-1.93.87-2.44l5.56-13.95h4.7v21.02zm5.56-18.17c-.65.03-1.08-.17-1.5-.52-.43-.37-.65-.86-.43-1.37-.22-.54 0-1.02.42-1.4.42-.38.85-.58 1.5-.55.63-.03 1.06.17 1.5.55.4.38.63.86.63 1.4 0 .52-.22 1-.64 1.35-.44.38-.87.58-1.5.55zm1.7 18.17h-3.42v-15h3.42zm14.1-.7c-1.27.77-2.56 1.08-4.27 1.04-2.13 0-4.06-.67-5.34-2.08-1.3-1.38-1.93-3.2-2.15-5.4 0-2.47.86-4.46 2.35-5.97 1.5-1.48 3.42-2.23 5.78-2.23 1.5-.04 2.56.17 3.63.72v3.16c-.84-.8-1.9-1.17-3.2-1.17-1.5-.07-2.56.45-3.63 1.44-.86 1.1-1.28 2.37-1.28 3.8 0 1.56.4 2.8 1.27 3.7.85.95 2.14 1.43 3.42 1.36 1.27-.03 2.56-.44 3.4-1.3v2.95zm11.13-11.08c-.43-.36-1.07-.53-1.7-.5-1.08 0-1.94.5-2.58 1.38-.64.9-1.07 2.13-1.07 3.7v7.2h-3.42v-15.02h3.42v3.1c.43-1 .86-1.8 1.7-2.48.65-.6 1.3-.9 2.15-.9.64 0 1.07.07 1.5.28v3.23zm7.9 12.1c-2.34 0-4.27-.67-5.55-2.08-1.5-1.4-2.14-3.26-2.14-5.57 0-2.54.64-4.5 2.14-5.9 1.5-1.45 3.42-2.13 5.77-2.13 2.35 0 4.28.68 5.56 2.06 1.3 1.37 1.94 3.3 1.94 5.73 0 2.38-.65 4.3-2.14 5.75-1.3 1.44-3.2 2.16-5.56 2.16zm0-13c-1.27-.04-2.34.44-2.98 1.4-.86.93-1.3 2.2-1.3 3.85 0 1.58.44 2.82 1.3 3.7.64.94 1.92 1.42 3 1.35 1.27.07 2.34-.38 3.2-1.3.64-.9 1.06-2.17 1.06-3.82s-.4-2.92-1.05-3.8c-.86-.97-1.93-1.45-3.2-1.4zm9.2 12.2v-3.14c1.28.97 2.78 1.45 4.28 1.45 2.15 0 3-.6 3-1.8 0-.32 0-.63-.2-.87-.23-.28-.44-.48-.65-.66-.43-.2-.65-.37-1.07-.48l-1.3-.52c-.63-.24-1.27-.48-1.7-.8-.64-.23-.85-.5-1.28-.92-.43-.34-.64-.72-.64-1.17-.2-.52-.43-1-.43-1.55 0-.7.22-1.3.64-1.9.43-.6.64-1.02 1.3-1.4.63-.4 1.27-.65 1.9-.86.87-.22 1.5-.28 2.36-.28 1.3-.04 2.57.17 3.64.6v3c-1.07-.75-2.14-1.1-3.64-1.1-.2 0-.64.04-1.07.14-.42.07-.64.2-.85.38-.2.14-.42.3-.63.55 0 .23-.22.43-.22.7 0 .32 0 .56.22.83.2.24.42.45.64.6.44.2.65.33 1.08.47.2.14.64.3 1.28.45.64.27 1.07.5 1.7.82.44.27.87.55 1.3.93.42.38.63.75.85 1.23.22.52.22 1.03.22 1.62 0 .72-.2 1.37-.43 2-.43.57-.86 1.02-1.5 1.4-.64.4-1.28.65-2.14.82-.64.18-1.5.28-2.35.24-1.5.05-2.77-.2-4.27-.8zm19.67.8c-2.35 0-4.27-.67-5.56-2.08-1.5-1.4-2.14-3.26-2.14-5.57 0-2.54.65-4.5 2.14-5.9 1.5-1.45 3.42-2.13 5.78-2.13 2.35 0 4.27.68 5.55 2.06 1.3 1.37 1.93 3.3 1.93 5.73 0 2.38-.64 4.3-2.14 5.75-1.28 1.44-3.2 2.16-5.56 2.16zm0-13c-1.07-.04-2.35.44-3 1.4-.85.93-1.27 2.2-1.27 3.85 0 1.58.42 2.82 1.28 3.7.86.94 1.93 1.42 3 1.35 1.28.07 2.35-.38 3.2-1.3.65-.9 1.08-2.17 1.08-3.82s-.43-2.92-1.07-3.8c-.85-.97-1.92-1.45-3.2-1.4zm18.17-6.77c-.42-.28-1.06-.4-1.5-.4-1.7 0-2.56.9-2.56 2.8v2.03h3.65v2.64h-3.64v12.37h-3.4v-12.33h-2.57v-2.68h2.56v-2.44c0-1.48.42-2.75 1.7-3.74 1.07-.97 2.35-1.4 3.85-1.38.64-.03 1.28.07 1.92.28v2.85z" stroke="#000" stroke-opacity="0" stroke-width=".95" fill="#706e6e"/><path d="M4928.44 2013.3c-.85.38-1.7.55-2.57.5-3 0-4.48-1.4-4.48-4.18v-8.48h-2.37v-2.68h2.36V1995l3.4-.97v4.43h3.64v2.68h-3.63v7.5c0 .88.22 1.53.65 1.9.42.42.85.63 1.5.56.64.03 1.06-.14 1.5-.48zm7.7-.62v-3.2c1.5 1.14 3 1.65 4.7 1.65 1.28.07 2.35-.24 3.42-.96.64-.62 1.28-1.54 1.07-2.57 0-2.4-1.7-3.58-5.34-3.58h-1.72v-2.74h1.5c3.4 0 4.9-1.1 4.9-3.37 0-2.05-1.27-3.08-3.84-3.08-1.5 0-2.78.5-3.85 1.5v-3c1.7-.9 3.2-1.28 5.12-1.25 1.7 0 3.2.48 4.28 1.4 1.28.94 1.92 2.17 1.7 3.62 0 2.77-1.27 4.55-4.05 5.34v.04c1.28.07 2.56.62 3.42 1.58 1.07.96 1.5 2.13 1.5 3.43 0 1.85-.86 3.43-2.14 4.56-1.5 1.17-3.42 1.75-5.78 1.75-1.92 0-3.63-.36-4.9-1.12zm28.86-5.98c0 1.03-.2 1.93-.43 2.9-.42.88-.85 1.57-1.5 2.26-.64.65-1.28 1.1-2.13 1.44-1.07.38-1.93.55-2.78.55-1.07 0-1.93-.2-3-.62-.85-.45-1.7-1.03-2.35-1.85-.63-.93-1.06-1.86-1.48-3.03-.22-1.44-.43-2.7-.43-4.2 0-1.84.2-3.4.63-5.18.43-1.44 1.07-2.57 1.93-3.77.85-1.03 1.7-1.72 3-2.3 1.06-.6 2.13-.83 3.4-.83.86 0 1.5.03 2.15.17.65.07 1.08.2 1.72.45v3.05c-.64-.28-1.07-.5-1.7-.66-.65-.2-1.3-.28-1.94-.28-.85 0-1.5.17-2.35.5-.64.36-1.28.8-1.7 1.46-.65.75-.86 1.47-1.3 2.37-.2 1.13-.42 2.1-.42 3.26h.22c.43-.7 1.07-1.23 1.7-1.6.87-.45 1.72-.66 2.8-.62.85 0 1.7.13 2.35.44.85.3 1.5.7 1.92 1.3.63.63 1.06 1.25 1.27 2.04.22.92.43 1.78.43 2.74zm-3.42.28c0-.6 0-1.07-.2-1.65-.23-.48-.44-.86-.66-1.27-.42-.38-.64-.62-1.06-.83-.65-.2-1.07-.3-1.5-.27-.64-.04-1.07.07-1.7.3-.44.2-.65.45-1.08.83-.2.34-.43.7-.64 1.16-.22.45-.22.86-.22 1.34 0 .55 0 1 .22 1.55.2.5.43.96.64 1.4.2.5.64.8 1.07 1.07.64.3 1.07.45 1.7.4.44 0 1.08-.06 1.5-.3.43-.2.65-.48 1.07-.86.22-.37.43-.8.65-1.27.2-.56.2-1.04.2-1.62zm5.34 6v-3.22c1.3.93 2.57 1.34 4.28 1.37 1.28.07 2.35-.27 3.42-1.06.86-.76 1.28-1.75 1.28-2.92 0-1.13-.42-2.13-1.28-2.78-1.07-.7-2.35-1-3.85-1-.64 0-1.7.04-3.42.17l.64-11.06h10.47v2.92h-7.7l-.2 5.26c.63-.04 1.27-.04 1.7-.04 2.35 0 4.06.55 5.13 1.72 1.28 1.13 1.93 2.68 1.93 4.6 0 2.1-.65 3.78-2.14 5.02-1.3 1.27-3.22 1.9-5.8 1.9-1.9 0-3.4-.3-4.48-.87z" stroke="#000" stroke-opacity="0" stroke-width=".95" fill="#706e6e"/><path d="M4722.35 1955.83h308v320h-308z" stroke="#50e6ff" stroke-width="7" fill-opacity="0"/><path d="M4941.1 2339.15l-3.12 8.65h6.24l-3.12-8.65zm2.16-3.8l7.68 20.52h-3.84l-1.92-5.1h-8.16l-1.68 5.1h-3.84l7.68-20.5h4.08zM4952.62 2341.17h11.75v1.37l-7.67 10.6h7.67v2.73h-12.23v-1.64l7.67-10.33h-7.18v-2.73zM4979.73 2341.17v14.7h-3.6v-1.9c-.48.64-.96 1.15-1.68 1.53-.96.37-1.68.58-2.64.58-1.67 0-3.1-.48-4.07-1.47-.72-.95-1.2-2.45-1.2-4.5v-8.93h3.6v8.5c0 1.28.24 2.2.72 2.82.48.6 1.2.9 2.16.9.97 0 1.7-.33 2.4-1.02.5-.68.73-1.6.73-2.7v-8.5h3.6zM4989.56 2340.93c.48 0 .72 0 .96.03 0 .07.24.1.48.17v3.5c-.24-.14-.48-.25-.72-.38-.48-.1-.96-.17-1.44-.17-.72 0-1.44.34-2.16 1.06-.48.7-.72 1.8-.72 3.3v7.43h-3.6v-14.7h3.6v2.32c.24-.83.72-1.44 1.44-1.9.48-.47 1.44-.67 2.16-.67zM5001.32 2347.02c0-1.13-.24-2.02-.96-2.6-.48-.62-1.2-.93-2.16-.93-.72 0-1.44.3-2.16.92-.72.58-1.2 1.47-1.44 2.6h6.72zm2.16 5.16v2.84c-.48.37-1.2.65-2.16.9-.96.2-1.92.3-3.12.3-2.16 0-3.84-.66-5.04-2-1.44-1.3-1.92-3.13-1.92-5.53 0-2.27.72-4.15 1.92-5.62 1.44-1.47 3.12-2.22 5.04-2.22 2.16 0 3.6.62 4.8 1.88 1.2 1.23 1.68 2.94 1.68 5.17v1.65h-10.08c.24 1.5.72 2.53 1.44 3.1.72.6 1.92.9 3.12.9.72 0 1.68-.14 2.4-.38.72-.27 1.44-.58 1.92-1zM4918.07 2344h-5.04v11.87h-3.6V2344h-2.4v-2.83h2.4v-2.05c0-1.54.48-2.8 1.44-3.8 1.2-1 2.4-1.47 4.08-1.47.24 0 .72 0 .96.07.5.03.73.1.97.17v3c-.24-.07-.24-.17-.72-.24-.24-.1-.48-.17-.96-.17-.73 0-1.2.23-1.7.67-.23.45-.47 1.13-.47 2.02v1.77h5.04v-3.32l3.6-1.06v4.37h3.36v2.84h-3.36v6.88c0 .9 0 1.54.48 1.9.24.4.72.56 1.44.56.23 0 .47-.03.7-.13.5-.1.73-.2.73-.34v2.88c-.24.1-.48.23-.96.34-.48.1-.96.13-1.44.13-1.68 0-2.64-.36-3.36-1.15-.72-.75-1.2-1.95-1.2-3.5v-7.54zm-23.03 4.62c0 1.54.48 2.7 1.2 3.53.72.82 1.68 1.2 2.88 1.2 1.44 0 2.4-.38 2.88-1.2.72-.83.96-2.02.96-3.63 0-1.57-.24-2.77-.96-3.56-.72-.82-1.68-1.23-2.88-1.23s-2.16.45-2.88 1.27c-.72.85-1.2 2.05-1.2 3.62zm-3.6.1c0-2.42.72-4.34 2.16-5.77 1.44-1.4 3.36-2.12 5.76-2.12 2.16 0 4.08.68 5.27 2.05 1.44 1.37 1.92 3.2 1.92 5.54 0 2.4-.48 4.27-1.92 5.7-1.43 1.4-3.35 2.1-5.75 2.1-2.16 0-4.08-.66-5.28-2-1.44-1.36-2.16-3.17-2.16-5.5zm-7.68-3.7c0 .5.24.9.48 1.18.24.27.96.65 2.16 1.06 1.2.54 2.16 1.2 2.88 1.88.48.68.72 1.5.72 2.5 0 1.4-.48 2.5-1.44 3.34-1.2.82-2.64 1.23-4.32 1.23-.72 0-1.44-.05-2.16-.2-.72-.13-1.44-.33-1.92-.57v-3.4c.72.46 1.44.8 2.16 1.04.72.27 1.44.4 1.92.4.72 0 1.44-.1 1.68-.33.48-.2.72-.58.72-1.1 0-.48-.24-.9-.72-1.2-.24-.34-.96-.7-2.16-1.16-1.2-.5-2.16-1.13-2.64-1.77-.72-.68-.96-1.53-.96-2.56 0-1.33.72-2.43 1.68-3.28.96-.86 2.4-1.27 4.08-1.27.48 0 1.2.06 1.68.16.72.1 1.2.28 1.68.45v3.3c-.48-.32-.96-.56-1.68-.8-.48-.2-1.2-.3-1.68-.3-.72 0-1.2.1-1.68.37-.24.24-.48.62-.48 1.06zm-16.55 3.6c0 1.54.25 2.7.97 3.53.72.82 1.68 1.2 2.88 1.2 1.44 0 2.4-.38 2.88-1.2.72-.83.96-2.02.96-3.63 0-1.57-.25-2.77-.97-3.56-.72-.82-1.68-1.23-2.88-1.23s-2.16.45-2.88 1.27c-.72.85-.96 2.05-.96 3.62zm-3.6.1c0-2.42.5-4.34 1.93-5.77 1.44-1.4 3.36-2.12 5.76-2.12s4.07.68 5.27 2.05c1.43 1.37 1.9 3.2 1.9 5.54 0 2.4-.47 4.27-1.9 5.7-1.44 1.4-3.36 2.1-5.52 2.1-2.4 0-4.32-.66-5.52-2-1.44-1.36-1.92-3.17-1.92-5.5zm-1.67-7.8c.24 0 .48 0 .72.04.24.07.48.1.72.17v3.5c-.24-.14-.48-.25-.96-.38-.23-.1-.7-.17-1.2-.17-.7 0-1.43.34-2.15 1.06-.48.7-.96 1.8-.96 3.3v7.43h-3.37v-14.7h3.36v2.32h.23c.24-.83.72-1.44 1.44-1.9.48-.47 1.44-.67 2.16-.67zm-13.2 12.42c.5 0 .97-.1 1.7-.34.7-.24 1.18-.55 1.66-.96v3.22c-.5.34-1.2.58-1.92.7-.72.2-1.44.25-2.16.25-2.16 0-4.08-.67-5.28-2.04-1.44-1.37-2.16-3.1-2.16-5.23 0-2.36.72-4.3 2.16-5.85 1.44-1.53 3.36-2.3 5.76-2.3.72 0 1.44.08 2.16.25.47.17 1.2.38 1.43.58v3.33c-.5-.38-.97-.68-1.68-.9-.48-.23-.96-.33-1.68-.33-1.2 0-2.4.44-3.36 1.33-.72.9-1.2 2.1-1.2 3.6s.48 2.66 1.2 3.48c.96.83 1.92 1.24 3.36 1.24zm-13.9 2.53h3.35v-14.7h-3.36v14.7zm-.5-18.94c0-.58.25-1.06.73-1.44.48-.42.96-.6 1.44-.6.72 0 1.2.18 1.44.6.48.4.72.85.72 1.43 0 .55-.24 1.02-.72 1.4-.24.38-.96.58-1.44.58s-1.2-.2-1.44-.57c-.48-.38-.72-.85-.72-1.4zm-2.87-1.57v20.5h-3.6v-16.06l-6.47 16.07h-2.4l-6.5-16.07v16.07h-3.35v-20.5h5.28l5.76 15.2h.23l6-15.2h5.03z" stroke="#000" stroke-opacity="0" stroke-width=".59" fill="#706e6e"/><path d="M4764.77 2344.76h16.3v-16.24h-16.3v16.24z" stroke="#000" stroke-opacity="0" stroke-width=".59" fill="#f25022"/><path d="M4782.76 2344.76h16.3v-16.24h-16.3v16.24z" stroke="#000" stroke-opacity="0" stroke-width=".59" fill="#7fba00"/><path d="M4764.77 2362.7h16.3v-16.23h-16.3v16.24z" stroke="#000" stroke-opacity="0" stroke-width=".59" fill="#00a4ef"/><path d="M4782.76 2362.7h16.3v-16.23h-16.3v16.24z" stroke="#000" stroke-opacity="0" stroke-width=".59" fill="#ffb900"/><path d="M4939.47 2465.3c1.18-1.17.95-3.1 0-4.34l-5.76-5.73-25.87-25.26c-1.2-1.17-2.88-1.17-4.1 0-1.17 1.18-1.43 3.1 0 4.35l27.1 26.64c1.22 1.24 1.22 3.17 0 4.34l-27.55 27.67c-1.2 1.17-1.2 3.1 0 4.28 1.18 1.24 3.1.97 4.06 0l25.65-25.46.22-.22 6.25-6.28zM4821.06 2465.3c-1.17-1.17-.94-3.1 0-4.34l5.76-5.73 25.9-25.26c1.2-1.17 2.87-1.17 4.08 0 1.17 1.18 1.44 3.1 0 4.35l-26.6 26.64c-1.22 1.24-1.22 3.17 0 4.34l27.05 27.67c1.22 1.17 1.22 3.1 0 4.28-1.17 1.24-3.1.97-4.05 0l-26.1-25.2-.28-.26-5.76-6.5z" stroke="#000" stroke-opacity="0" fill="#0078d4"/><path d="M4863.97 2463.14c0 4.57-3.83 7.93-7.9 7.93s-8.4-3.84-8.4-7.93c0-4.1 3.37-7.93 8.4-7.93 4.8 0 7.9 3.85 7.9 7.94zM4888.18 2463.14c0 4.57-3.83 7.93-7.9 7.93-4.08 0-8.4-3.84-8.4-7.93 0-4.1 3.83-7.93 8.4-7.93 4.54 0 7.9 3.85 7.9 7.94zM4912.62 2463.14c0 4.38-3.54 7.93-7.9 7.93-4.37 0-7.92-3.55-7.92-7.93s3.55-7.93 7.9-7.93c4.38 0 7.92 3.56 7.92 7.94z" stroke="#000" stroke-opacity="0" fill="#46990e"/><path d="M4854 2430.66h52.36l32.55 32.55-33.83 34.02h-50.6l-33.47-33.6z" stroke="#000" stroke-opacity="0" stroke-width="0" fill="#00000e" fill-opacity="0"/><use xlink:href="#o" transform="matrix(1,0,0,1,4790.268385876772,2507.0776834363314) translate(20.76640399796908 18.6441545466457)"/><use xlink:href="#p" transform="matrix(1,0,0,1,4790.268385876772,2507.0776834363314) translate(84.14671674364519 18.6441545466457)"/><path d="M3794.5 2233.8h480.1M3794.56 2233.8H3792" stroke="#50e6ff" stroke-width="5" fill="none"/><path d="M4277.1 2236.3h-2.57v-5h2.57" fill="#50e6ff"/><path d="M4358.93 2233.8H4625v-117.97h91.35" stroke="#50e6ff" stroke-width="5" fill="none"/><path d="M4356.43 2231.3h2.56v5h-2.57M4718.85 2118.33h-2.57v-5h2.57" fill="#50e6ff"/><path d="M3821 2244.9h829.7v213.18h69.57M3821.06 2244.9h-2.56" stroke="#0078d4" stroke-width="5" fill="none"/><path d="M4722.77 2460.58h-2.57v-5h2.57" fill="#0078d4"/><g fill="none"><path d="M4099.6 2145.96v35.62h-292.84v-35.62z"/><path d="M3806.76 2181.58c0-10.1 8.2-18.3 18.3-18.3h109.8c10.12 0 18.32-8.2 18.32-18.3 0 10.1 8.2 18.3 18.3 18.3h109.8c10.12 0 18.3 8.2 18.3 18.3" stroke="#333" stroke-width="4"/></g><path d="M4379.3 2322.8h259.27v-182.44h77.78" stroke="#50e6ff" stroke-width="5" fill="none"/><path d="M4376.8 2320.3h2.56v5h-2.56M4718.85 2142.86h-2.57v-5h2.57" fill="#50e6ff"/><path d="M3819.75 2322.9h237.6v-.1h237.62M3819.82 2322.9h-2.57" stroke="#50e6ff" stroke-width="5" fill="none"/><path d="M4297.47 2325.3h-2.56v-5h2.57" fill="#50e6ff"/><path d="M4380.52 2335.74h258.86V2472h80.9" stroke="#0078d4" stroke-width="5" fill="none"/><path d="M4378.02 2333.24h2.56v5h-2.56M4722.77 2474.5h-2.57v-5h2.57" fill="#0078d4"/><path d="M3820.76 2335.76h237.72v-.02h237.7M3820.83 2335.76h-2.57" stroke="#0078d4" stroke-width="5" fill="none"/><path d="M4298.7 2338.24h-2.58v-5h2.57" fill="#0078d4"/><path d="M3987.45 2355.04h236v67h-236z" fill-opacity="0"/><use xlink:href="#q" transform="matrix(1,0,0,1,3992.4544280679384,2360.04279590968) translate(6.484157986111114 34.86631944444444)"/><use xlink:href="#r" transform="matrix(1,0,0,1,3992.4544280679384,2360.04279590968) translate(69.298828125 34.86631944444444)"/><use xlink:href="#h" transform="matrix(1,0,0,1,3992.4544280679384,2360.04279590968) translate(166.18467881944446 34.86631944444444)"/><path d="M4248.5 2301.9" stroke="#999" stroke-width="2" fill="none"/><path fill="#999"/><path fill="#999"/><path d="M3789.73 2467.38h326.9V2528h-326.9z" fill="#fff"/><use xlink:href="#s" transform="matrix(1,0,0,1,3794.732721777357,2472.3770901095213) translate(21.447028138102723 21.394293763102727)"/><use xlink:href="#t" transform="matrix(1,0,0,1,3794.732721777357,2472.3770901095213) translate(101.39412588443398 21.394293763102727)"/><use xlink:href="#u" transform="matrix(1,0,0,1,3794.732721777357,2472.3770901095213) translate(166.57916093422432 21.394293763102727)"/><use xlink:href="#v" transform="matrix(1,0,0,1,3794.732721777357,2472.3770901095213) translate(289.19098450602723 21.394293763102727)"/><use xlink:href="#w" transform="matrix(1,0,0,1,3794.732721777357,2472.3770901095213) translate(104.3442863928197 48.41866483228512)"/><path d="M3789.73 2080h326.9v58.7h-326.9z" fill="#fff"/><use xlink:href="#s" transform="matrix(1,0,0,1,3794.732721777357,2085) translate(21.447028138102723 21.394293763102727)"/><use xlink:href="#t" transform="matrix(1,0,0,1,3794.732721777357,2085) translate(101.39412588443398 21.394293763102727)"/><use xlink:href="#u" transform="matrix(1,0,0,1,3794.732721777357,2085) translate(166.57916093422432 21.394293763102727)"/><use xlink:href="#v" transform="matrix(1,0,0,1,3794.732721777357,2085) translate(289.19098450602723 21.394293763102727)"/><use xlink:href="#x" transform="matrix(1,0,0,1,3794.732721777357,2085) translate(118.68972336871069 48.41866483228512)"/><use xlink:href="#y" transform="matrix(1,0,0,1,3794.732721777357,2085) translate(158.5 75.44303590146751)"/><g fill="none"><path d="M3806.76 2461.94v-35.63h292.83v35.64z"/><path d="M4099.6 2426.3c0 10.12-8.2 18.3-18.3 18.3h-109.82c-10.1 0-18.3 8.2-18.3 18.3 0-10.1-8.2-18.3-18.3-18.3h-109.82c-10.1 0-18.3-8.18-18.3-18.3" stroke="#333" stroke-width="4"/></g><path d="M4380.13 2297.28h249.6v64.05h-249.6z" fill="#fff"/><use xlink:href="#z" transform="matrix(1,0,0,1,4385.134129846498,2302.280448247868) translate(4.538374606918239 35.14429376310272)"/><use xlink:href="#A" transform="matrix(1,0,0,1,4385.134129846498,2302.280448247868) translate(118.5587002096436 35.14429376310272)"/><path d="M4283.05 2074.9h243.5v35.62h-243.5z" fill="#fff"/><use xlink:href="#B" transform="matrix(1,0,0,1,4288.0490182295025,2079.898307055923) translate(0.9856033805031359 23.33922955974843)"/><use xlink:href="#C" transform="matrix(1,0,0,1,4288.0490182295025,2079.898307055923) translate(160.89617727987422 23.33922955974843)"/><path d="M4383.9 2208h214.9v64.05h-214.9z" fill="#fff"/><use xlink:href="#D" transform="matrix(1,0,0,1,4388.907714752158,2213) translate(1.3838115828092157 35.14429376310272)"/><use xlink:href="#A" transform="matrix(1,0,0,1,4388.907714752158,2213) translate(86.71326323375263 35.14429376310272)"/><path d="M4316.36 2283.25c0 44.2-12 80-26.8 80s-26.78-35.8-26.78-80c0-44.18 12-80 26.8-80 14.78 0 26.78 35.82 26.78 80z" stroke="#552f99" stroke-width="8" fill-opacity="0"/><path d="M4279.1 2233.3h75.33v1h-75.33zM4299.47 2322.3h75.33v1h-75.33z" stroke="#50e6ff" stroke-width="4" fill="#fff"/><path d="M4300.7 2335.24H4376v1h-75.33zM4299.7 2244.24H4375v1h-75.33z" stroke="#0078d4" stroke-width="4" fill="#fff"/><path d="M4289.57 2112.02v66.6" stroke="#000" stroke-width="3" fill="none"/><path d="M4291.07 2112.06h-3v-1.54h3"/><path d="M4289.57 2194.4l-4.64-14.27h9.27z" stroke="#000" stroke-width="3"/><path d="M3588.6 2200.2c0 .93-.83 1.77-1.76 1.77-.94 0-1.78-.84-1.78-1.77 0-1.02.84-1.77 1.78-1.77.93 0 1.77.75 1.77 1.77zM3573.5 2200.2c0 .93-.74 1.77-1.76 1.77-.93 0-1.68-.84-1.68-1.77 0-1.02.75-1.77 1.68-1.77 1.02 0 1.77.75 1.77 1.77z" stroke="#000" stroke-width="5.41"/><path d="M3571.18 2178.86h54.6c12.87 0 19.3 6.43 19.3 19.3v4.1c0 12.85-6.43 19.28-19.3 19.28h-54.6c-12.86 0-19.3-6.43-19.3-19.3v-4.1c0-12.85 6.44-19.28 19.3-19.28z" stroke="#000" stroke-width="5.41" fill-opacity="0"/><path d="M3588.6 2250.7c0 1.03-.83 1.78-1.76 1.78-.94 0-1.78-.75-1.78-1.77 0-.92.84-1.76 1.78-1.76.93 0 1.77.84 1.77 1.77zM3573.5 2250.7c0 1.03-.74 1.78-1.76 1.78-.93 0-1.68-.75-1.68-1.77 0-.92.75-1.76 1.68-1.76 1.02 0 1.77.84 1.77 1.77z" stroke="#000" stroke-width="5.41"/><path d="M3571.18 2229.37h54.6c12.87 0 19.3 6.43 19.3 19.3v4.1c0 12.85-6.43 19.28-19.3 19.28h-54.6c-12.86 0-19.3-6.43-19.3-19.3v-4.1c0-12.85 6.44-19.28 19.3-19.28z" stroke="#000" stroke-width="5.41" fill-opacity="0"/><path d="M3571.18 2178.86h54.6c12.87 0 19.3 6.43 19.3 19.3v4.1c0 12.85-6.43 19.28-19.3 19.28h-54.6c-12.86 0-19.3-6.43-19.3-19.3v-4.1c0-12.85 6.44-19.28 19.3-19.28zM3571.18 2229.37h54.6c12.87 0 19.3 6.43 19.3 19.3v4.1c0 12.85-6.43 19.28-19.3 19.28h-54.6c-12.86 0-19.3-6.43-19.3-19.3v-4.1c0-12.85 6.44-19.28 19.3-19.28z" stroke="#000" stroke-opacity="0" fill="#fff" fill-opacity="0"/><path d="M3816.07 2239.03c0 18.24-14.78 33.02-33.02 33.02-18.23 0-33-14.78-33-33.02 0-18.23 14.77-33 33-33 18.24 0 33.02 14.77 33.02 33z" stroke="#333" stroke-width="3" fill="#fff"/><path d="M3801.57 2244.7l-2.58-2.62-3.62-3.64-.17-.12c-.03-.05-.03-.05-.1-.05l-3.1 3.1-8.9 8.87-9.12-8.54-.8.8 9.15 8.55-5.72 5.7c-1.5 1.53-3.5 2.3-5.62 2.3s-4.16-.77-5.64-2.3c-1.44-1.5-2.3-3.5-2.3-5.66 0-2.12.86-4.15 2.3-5.64l.08-.04 1.4-1.27-.8-.8-1.53 1.35c-3.53 3.56-3.53 9.27.08 12.78 3.56 3.55 9.23 3.55 12.84 0l17.67-17.68 5.62 5.62c3.14 3.1 3.14 8.12 0 11.25-1.52 1.53-3.5 2.33-5.63 2.33s-4.17-.9-5.65-2.33l-1.35-1.4-.8.85 1.4 1.4c1.64 1.7 3.93 2.67 6.4 2.67 2.4 0 4.7-1 6.43-2.68 1.65-1.65 2.63-4.02 2.63-6.43.08-2.46-.9-4.7-2.6-6.4z" stroke="#0b77f3" stroke-width="2.25" fill="#0b77f3"/><path d="M3801.53 2220.55c-3.6-3.56-9.28-3.56-12.84 0l-3.95 3.93-1.66 1.74-3.52-3.47-2.16-2.2c-1.6-1.65-4-2.62-6.36-2.62-2.42 0-4.7.97-6.44 2.62-1.65 1.73-2.63 4.06-2.63 6.43 0 2.4.97 4.74 2.62 6.43l2.5 2.55 3.8 3.76c.06.1.06.1.14.1l12.03-12.06 8.94 8.8.2.2.8-.8-.2-.2-9.02-8.76 5.63-5.63c1.53-1.52 3.52-2.32 5.64-2.32 2.1 0 4.18.88 5.62 2.32 3.14 3.13 3.14 8.17 0 11.25l-1.44 1.53.8.8 1.5-1.52c1.7-1.64 2.66-3.97 2.66-6.42-.08-2.46-.97-4.7-2.7-6.43zm-30.47 17.72l-5.64-5.67c-1.52-1.52-2.33-3.5-2.33-5.62s.84-4.15 2.32-5.63c1.44-1.44 3.52-2.32 5.64-2.32 2.12 0 4.15.88 5.64 2.32l5.63 5.63-11.27 11.3z" stroke="#4dd486" stroke-width="2.25" fill="#4dd486"/><path d="M3816.07 2324.84c0 18.23-14.78 33.02-33.02 33.02-18.23 0-33-14.8-33-33.02 0-18.23 14.77-33 33-33 18.24 0 33.02 14.77 33.02 33z" stroke="#333" stroke-width="3" fill="#fff"/><path d="M3801.57 2330.5l-2.58-2.6-3.62-3.65-.17-.13c-.03-.04-.03-.04-.1-.04l-3.1 3.1-8.9 8.87-9.12-8.54-.8.8 9.15 8.56-5.72 5.7c-1.5 1.53-3.5 2.3-5.62 2.3s-4.16-.77-5.64-2.3c-1.44-1.52-2.3-3.5-2.3-5.66 0-2.12.86-4.15 2.3-5.63l.08-.04 1.4-1.27-.8-.8-1.53 1.35c-3.53 3.56-3.53 9.27.08 12.8 3.56 3.54 9.23 3.54 12.84 0l17.67-17.7 5.62 5.63c3.14 3.1 3.14 8.12 0 11.25-1.52 1.52-3.5 2.33-5.63 2.33s-4.17-.88-5.65-2.32l-1.35-1.4-.8.85 1.4 1.4c1.64 1.7 3.93 2.66 6.4 2.66 2.4 0 4.7-.98 6.43-2.67 1.65-1.65 2.63-4.02 2.63-6.43.08-2.46-.9-4.7-2.6-6.4z" stroke="#0b77f3" stroke-width="2.25" fill="#0b77f3"/><path d="M3801.53 2306.36c-3.6-3.56-9.28-3.56-12.84 0l-3.95 3.93-1.66 1.72-3.52-3.46-2.16-2.2c-1.6-1.65-4-2.63-6.36-2.63-2.42 0-4.7.98-6.44 2.63-1.65 1.73-2.63 4.06-2.63 6.43 0 2.4.97 4.72 2.62 6.42l2.5 2.53 3.8 3.77c.06.08.06.08.14.08l12.03-12.05 8.94 8.8.2.2.8-.8-.2-.2-9.02-8.76 5.63-5.64c1.53-1.52 3.52-2.33 5.64-2.33 2.1 0 4.18.9 5.62 2.33 3.14 3.13 3.14 8.16 0 11.25l-1.44 1.53.8.8 1.5-1.5c1.7-1.66 2.66-4 2.66-6.44-.08-2.47-.97-4.7-2.7-6.44zm-30.47 17.72l-5.64-5.67c-1.52-1.5-2.33-3.5-2.33-5.6 0-2.13.84-4.16 2.32-5.64 1.44-1.44 3.52-2.33 5.64-2.33 2.12 0 4.15.9 5.64 2.33l5.63 5.63-11.27 11.28z" stroke="#4dd486" stroke-width="2.25" fill="#4dd486"/><path d="M4139.33 2239.03c0 18.24-14.78 33.02-33 33.02-18.24 0-33.02-14.78-33.02-33.02 0-18.23 14.8-33 33.02-33 18.23 0 33 14.77 33 33z" stroke="#333" stroke-width="3" fill="#fff"/><path d="M4124.84 2244.7l-2.6-2.62-3.6-3.64-.16-.12c-.04-.05-.04-.05-.12-.05l-3.1 3.1-8.9 8.87-9.1-8.54-.8.8 9.14 8.55-5.72 5.7c-1.53 1.53-3.52 2.3-5.64 2.3-2.12 0-4.15-.77-5.63-2.3-1.43-1.5-2.28-3.5-2.28-5.66 0-2.12.85-4.15 2.3-5.64l.07-.04 1.4-1.27-.8-.8-1.54 1.35c-3.52 3.56-3.52 9.27.08 12.78 3.56 3.55 9.24 3.55 12.84 0l17.68-17.68 5.63 5.62c3.13 3.1 3.13 8.12 0 11.25-1.53 1.53-3.53 2.33-5.64 2.33-2.12 0-4.16-.9-5.64-2.33l-1.36-1.4-.8.85 1.4 1.4c1.65 1.7 3.94 2.67 6.4 2.67 2.4 0 4.7-1 6.44-2.68 1.65-1.65 2.62-4.02 2.62-6.43.1-2.46-.9-4.7-2.58-6.4z" stroke="#0b77f3" stroke-width="2.25" fill="#0b77f3"/><path d="M4124.8 2220.55c-3.6-3.56-9.28-3.56-12.84 0l-3.94 3.93-1.66 1.74-3.5-3.47-2.18-2.2c-1.6-1.65-3.98-2.62-6.35-2.62-2.42 0-4.7.97-6.44 2.62-1.67 1.73-2.64 4.06-2.64 6.43 0 2.4.97 4.74 2.63 6.43l2.5 2.55 3.8 3.76c.04.1.04.1.13.1l12.03-12.06 8.94 8.8.22.2.8-.8-.2-.2-9.04-8.76 5.64-5.63c1.53-1.52 3.52-2.32 5.64-2.32 2.1 0 4.2.88 5.63 2.32 3.13 3.13 3.13 8.17 0 11.25l-1.45 1.53.8.8 1.5-1.52c1.68-1.64 2.66-3.97 2.66-6.42-.08-2.46-.97-4.7-2.7-6.43zm-30.47 17.72l-5.64-5.67c-1.53-1.52-2.34-3.5-2.34-5.62s.85-4.15 2.33-5.63c1.43-1.44 3.5-2.32 5.63-2.32 2.12 0 4.15.88 5.63 2.32l5.64 5.63-11.27 11.3z" stroke="#4dd486" stroke-width="2.25" fill="#4dd486"/><path d="M4139.33 2324.84c0 18.23-14.78 33.02-33 33.02-18.24 0-33.02-14.8-33.02-33.02 0-18.23 14.8-33 33.02-33 18.23 0 33 14.77 33 33z" stroke="#333" stroke-width="3" fill="#fff"/><path d="M4124.84 2330.5l-2.6-2.6-3.6-3.65-.16-.13c-.04-.04-.04-.04-.12-.04l-3.1 3.1-8.9 8.87-9.1-8.54-.8.8 9.14 8.56-5.72 5.7c-1.53 1.53-3.52 2.3-5.64 2.3-2.12 0-4.15-.77-5.63-2.3-1.43-1.52-2.28-3.5-2.28-5.66 0-2.12.85-4.15 2.3-5.63l.07-.04 1.4-1.27-.8-.8-1.54 1.35c-3.52 3.56-3.52 9.27.08 12.8 3.56 3.54 9.24 3.54 12.84 0l17.68-17.7 5.63 5.63c3.13 3.1 3.13 8.12 0 11.25-1.53 1.52-3.53 2.33-5.64 2.33-2.12 0-4.16-.88-5.64-2.32l-1.36-1.4-.8.85 1.4 1.4c1.65 1.7 3.94 2.66 6.4 2.66 2.4 0 4.7-.98 6.44-2.67 1.65-1.65 2.62-4.02 2.62-6.43.1-2.46-.9-4.7-2.58-6.4z" stroke="#0b77f3" stroke-width="2.25" fill="#0b77f3"/><path d="M4124.8 2306.36c-3.6-3.56-9.28-3.56-12.84 0l-3.94 3.93-1.66 1.72-3.5-3.46-2.18-2.2c-1.6-1.65-3.98-2.63-6.35-2.63-2.42 0-4.7.98-6.44 2.63-1.67 1.73-2.64 4.06-2.64 6.43 0 2.4.97 4.72 2.63 6.42l2.5 2.53 3.8 3.77c.04.08.04.08.13.08l12.03-12.05 8.94 8.8.22.2.8-.8-.2-.2-9.04-8.76 5.64-5.64c1.53-1.52 3.52-2.33 5.64-2.33 2.1 0 4.2.9 5.63 2.33 3.13 3.13 3.13 8.16 0 11.25l-1.45 1.53.8.8 1.5-1.5c1.68-1.66 2.66-4 2.66-6.44-.08-2.47-.97-4.7-2.7-6.44zm-30.47 17.72l-5.64-5.67c-1.53-1.5-2.34-3.5-2.34-5.6 0-2.13.85-4.16 2.33-5.64 1.43-1.44 3.5-2.33 5.63-2.33 2.12 0 4.15.9 5.63 2.33l5.64 5.63-11.27 11.28z" stroke="#4dd486" stroke-width="2.25" fill="#4dd486"/><path d="M3588.6 2341.03c0 .93-.83 1.77-1.76 1.77-.94 0-1.78-.84-1.78-1.77 0-1.02.84-1.77 1.78-1.77.93 0 1.77.75 1.77 1.77zM3573.5 2341.03c0 .93-.74 1.77-1.76 1.77-.93 0-1.68-.84-1.68-1.77 0-1.02.75-1.77 1.68-1.77 1.02 0 1.77.75 1.77 1.77z" stroke="#000" stroke-width="5.41"/><path d="M3571.18 2319.7h54.6c12.87 0 19.3 6.42 19.3 19.28v4.1c0 12.86-6.43 19.3-19.3 19.3h-54.6c-12.86 0-19.3-6.44-19.3-19.3v-4.1c0-12.86 6.44-19.3 19.3-19.3z" stroke="#000" stroke-width="5.41" fill-opacity="0"/><path d="M3588.6 2391.54c0 1.02-.83 1.77-1.76 1.77-.94 0-1.78-.74-1.78-1.76 0-.93.84-1.77 1.78-1.77.93 0 1.77.84 1.77 1.77zM3573.5 2391.54c0 1.02-.74 1.77-1.76 1.77-.93 0-1.68-.74-1.68-1.76 0-.93.75-1.77 1.68-1.77 1.02 0 1.77.84 1.77 1.77z" stroke="#000" stroke-width="5.41"/><path d="M3571.18 2370.2h54.6c12.87 0 19.3 6.43 19.3 19.3v4.1c0 12.85-6.43 19.28-19.3 19.28h-54.6c-12.86 0-19.3-6.43-19.3-19.3v-4.1c0-12.85 6.44-19.28 19.3-19.28z" stroke="#000" stroke-width="5.41" fill-opacity="0"/><path d="M3571.18 2319.7h54.6c12.87 0 19.3 6.42 19.3 19.28v4.1c0 12.86-6.43 19.3-19.3 19.3h-54.6c-12.86 0-19.3-6.44-19.3-19.3v-4.1c0-12.86 6.44-19.3 19.3-19.3zM3571.18 2370.2h54.6c12.87 0 19.3 6.43 19.3 19.3v4.1c0 12.85-6.43 19.28-19.3 19.28h-54.6c-12.86 0-19.3-6.43-19.3-19.3v-4.1c0-12.85 6.44-19.28 19.3-19.28z" stroke="#000" stroke-opacity="0" fill="#fff" fill-opacity="0"/><path d="M3655.74 2233.8c0 6.35-5.15 11.5-11.5 11.5s-11.5-5.15-11.5-11.5 5.15-11.5 11.5-11.5 11.5 5.15 11.5 11.5zM3751.27 2233.8c0 6.35-5.15 11.5-11.5 11.5s-11.5-5.15-11.5-11.5 5.15-11.5 11.5-11.5 11.5 5.15 11.5 11.5z"/><path d="M3657.74 2233.8h68.53" stroke="#000" stroke-width="4" fill="none"/><path d="M3657.8 2235.8h-2.32l.26-2-.26-2h2.3M3728.27 2233.8l.26 2h-2.3v-4h2.3M3660.98 2329.3c0 6.36-5.15 11.5-11.5 11.5s-11.5-5.14-11.5-11.5c0-6.35 5.15-11.5 11.5-11.5s11.5 5.15 11.5 11.5zM3756.5 2329.3c0 6.36-5.14 11.5-11.5 11.5-6.34 0-11.5-5.14-11.5-11.5 0-6.35 5.16-11.5 11.5-11.5 6.36 0 11.5 5.15 11.5 11.5z"/><path d="M3662.98 2329.3h68.53" stroke="#000" stroke-width="4" fill="none"/><path d="M3663.03 2331.3h-2.3l.25-2-.26-2h2.3M3733.5 2329.3l.27 2h-2.3v-4h2.3"/><defs><path d="M688-137c238 0 323-102 359-325h193c-32 297-228 482-552 482-361 0-569-299-569-680 0-197 8-360 73-497 88-186 257-317 513-319 316-2 509 195 535 488h-193c-31-212-118-330-342-330-272 0-397 224-393 523v141c-3 282 115 517 376 517" id="E"/><path d="M491 20c-241-1-355-148-355-398v-704h185v699c0 164 67 246 200 246 141 0 235-53 282-158v-787h185V0H812l-4-107C736-22 630 20 491 20" id="F"/><path d="M538-131c121 0 232-49 232-156 0-50-20-88-56-117-73-60-334-92-420-143-92-55-162-110-162-238 0-190 192-317 400-317 223 0 414 129 413 338H759c0-108-110-186-227-186-119 0-215 53-215 159 0 45 18 78 53 101 76 52 331 90 416 139 98 57 169 115 169 251C955-92 760 20 538 20c-176 0-314-68-386-174-38-55-57-115-57-179h185c6 129 116 202 258 202" id="G"/><path d="M456 20C285 20 205-92 206-268v-671H9v-143h197v-262h185v262h202v143H391v671c-9 125 92 149 207 118V0c-49 13-96 20-142 20" id="H"/><path d="M584 20C278 26 81-227 91-551c10-320 175-545 491-551 308-5 503 247 494 573-9 322-175 543-492 549zm-2-970c-208 0-305 185-305 421 0 216 106 398 307 398 211 0 307-186 307-420 0-214-109-399-309-399" id="I"/><path d="M1240-945c-141 0-250 95-250 227V0H804v-709c0-157-77-236-231-236-121 0-204 52-249 155V0H139v-1082h175l5 120c79-93 186-140 321-140 151 0 254 58 309 174 69-98 181-174 345-174 237 0 362 126 362 377V0h-185v-714c-2-159-67-231-231-231" id="J"/><path d="M599-131c141 0 220-65 285-146l113 88C906-50 770 20 589 20 281 21 93-214 93-545c0-223 93-397 233-485 74-48 154-72 240-72 300 2 449 218 445 537v77H278c0 197 129 357 321 357zm227-509c-3-180-88-310-260-310-170 0-264 140-282 310h542" id="K"/><path d="M663-916c-163-27-288 18-338 148V0H140v-1082h180l3 125c61-97 147-145 258-145 36 0 63 5 82 14v172" id="L"/><g id="a"><use transform="matrix(0.010836363338574424,0,0,0.010836363338574424,0,0)" xlink:href="#E"/><use transform="matrix(0.010836363338574424,0,0,0.010836363338574424,14.444872330319706,0)" xlink:href="#F"/><use transform="matrix(0.010836363338574424,0,0,0.010836363338574424,26.67912653957023,0)" xlink:href="#G"/><use transform="matrix(0.010836363338574424,0,0,0.010836363338574424,38.12232622510482,0)" xlink:href="#H"/><use transform="matrix(0.010836363338574424,0,0,0.010836363338574424,45.155126031839636,0)" xlink:href="#I"/><use transform="matrix(0.010836363338574424,0,0,0.010836363338574424,57.81199841129455,0)" xlink:href="#J"/><use transform="matrix(0.010836363338574424,0,0,0.010836363338574424,77.26327060403564,0)" xlink:href="#K"/><use transform="matrix(0.010836363338574424,0,0,0.010836363338574424,89.02072482638889,0)" xlink:href="#L"/></g><path fill="#666" d="M1216-1011c-1 297-202 441-512 441H361V0H169v-1456h537c297-6 510 164 510 445zm-192 2c1-178-126-288-307-289H361v571h345c196 1 318-92 318-282" id="M"/><path fill="#666" d="M561-1102c238-4 403 126 403 351v498c0 99 13 178 38 237V0H808c-11-21-19-59-26-114C696-25 593 20 474 20c-199 0-368-130-365-320 4-251 214-359 490-356h180v-85c-1-135-86-212-229-212-115 0-232 67-233 171H131c20-205 206-316 430-320zM294-326c0 117 90 185 207 185 122 0 239-75 278-162v-222H634c-227 0-340 66-340 199" id="N"/><path fill="#666" d="M277-555c0 244 77 420 297 424 127 2 249-93 255-210h175C980-127 805 20 574 20 258 20 81-222 92-562c11-319 164-533 481-540 237-5 426 165 431 392H829c-7-133-115-242-256-240-209 4-296 166-296 395" id="O"/><path fill="#666" d="M442-501L326-380V0H141v-1536h185v929c135-169 291-317 436-475h225L566-630 1036 0H819" id="P"/><path fill="#666" d="M599-131c141 0 220-65 285-146l113 88C906-50 770 20 589 20 281 21 93-214 93-545c0-223 93-397 233-485 74-48 154-72 240-72 300 2 449 218 445 537v77H278c0 197 129 357 321 357zm227-509c-3-180-88-310-260-310-170 0-264 140-282 310h542" id="Q"/><path fill="#666" d="M456 20C285 20 205-92 206-268v-671H9v-143h197v-262h185v262h202v143H391v671c-9 125 92 149 207 118V0c-49 13-96 20-142 20" id="R"/><path fill="#666" d="M972-643H361V0H169v-1456h902v158H361v498h611v157" id="S"/><path fill="#666" d="M634-1102c292 0 422 254 422 573 0 298-143 547-420 549-137 0-242-48-317-145L310 0H140v-1536h185v573c75-93 178-139 309-139zm-44 965c207 0 281-175 281-413 0-224-79-395-283-395-122 0-210 57-263 170v468c57 113 145 170 265 170" id="T"/><path fill="#666" d="M663-916c-163-27-288 18-338 148V0H140v-1082h180l3 125c61-97 147-145 258-145 36 0 63 5 82 14v172" id="U"/><path fill="#666" d="M341 0H156v-1082h185V0zm-91-1264c-68 0-108-42-109-105 0-62 41-107 109-107s110 44 110 107-42 105-110 105" id="V"/><g id="b"><use transform="matrix(0.010836363338574424,0,0,0.010836363338574424,0,0)" xlink:href="#M"/><use transform="matrix(0.010836363338574424,0,0,0.010836363338574424,13.881381436713836,0)" xlink:href="#N"/><use transform="matrix(0.010836363338574424,0,0,0.010836363338574424,25.953090195885746,0)" xlink:href="#O"/><use transform="matrix(0.010836363338574424,0,0,0.010836363338574424,37.569671694837524,0)" xlink:href="#P"/><use transform="matrix(0.010836363338574424,0,0,0.010836363338574424,48.60108957350629,0)" xlink:href="#Q"/><use transform="matrix(0.010836363338574424,0,0,0.010836363338574424,60.35854379585953,0)" xlink:href="#R"/><use transform="matrix(0.010836363338574424,0,0,0.010836363338574424,67.60807086936582,0)" xlink:href="#S"/><use transform="matrix(0.010836363338574424,0,0,0.010836363338574424,79.50639781512054,0)" xlink:href="#N"/><use transform="matrix(0.010836363338574424,0,0,0.010836363338574424,91.57810657429245,0)" xlink:href="#T"/><use transform="matrix(0.010836363338574424,0,0,0.010836363338574424,104.02908805031444,0)" xlink:href="#U"/><use transform="matrix(0.010836363338574424,0,0,0.010836363338574424,111.53868784394655,0)" xlink:href="#V"/><use transform="matrix(0.010836363338574424,0,0,0.010836363338574424,116.924360423218,0)" xlink:href="#O"/></g><path fill="#666" d="M703-1476c426 0 599 333 586 795-11 408-187 701-584 701-422 0-587-333-587-793 0-282 106-507 280-617 89-56 190-86 305-86zm2 1333c312 0 393-279 393-632 0-308-116-536-395-536-269 0-394 232-394 523v107c-4 298 123 538 396 538" id="W"/><path fill="#666" d="M589-945c-131 0-219 81-264 174V0H140v-1082h175l6 136c83-104 191-156 324-156 229 0 346 129 346 387V0H806v-716c-2-153-65-229-217-229" id="X"/><path fill="#666" d="M525-543H37v-151h488v151" id="Y"/><path fill="#666" d="M1161-1018c0 201-122 330-278 388l342 618V0h-206L703-589H361V0H168v-1456h482c310-2 511 139 511 438zm-193 0c0-187-120-280-313-280H361v552h295c179 3 313-101 312-272" id="Z"/><path fill="#666" d="M1240-945c-141 0-250 95-250 227V0H804v-709c0-157-77-236-231-236-121 0-204 52-249 155V0H139v-1082h175l5 120c79-93 186-140 321-140 151 0 254 58 309 174 69-98 181-174 345-174 237 0 362 126 362 377V0h-185v-714c-2-159-67-231-231-231" id="aa"/><path fill="#666" d="M632-1102c291 0 422 251 422 573 0 297-141 548-419 549-131 0-235-42-310-125v521H140v-1498h169l9 120c75-93 180-140 314-140zm-53 971c207 0 290-180 290-419 0-218-92-395-292-395-112 0-196 50-252 149v517c55 99 140 148 254 148" id="ab"/><path fill="#666" d="M177 125H18l608-1581h158" id="ac"/><g id="c"><use transform="matrix(0.010836363338574424,0,0,0.010836363338574424,0,0)" xlink:href="#W"/><use transform="matrix(0.010836363338574424,0,0,0.010836363338574424,15.257599580712789,0)" xlink:href="#X"/><use transform="matrix(0.010836363338574424,0,0,0.010836363338574424,27.502690153301888,0)" xlink:href="#Y"/><use transform="matrix(0.010836363338574424,0,0,0.010836363338574424,33.62523543959644,0)" xlink:href="#Z"/><use transform="matrix(0.010836363338574424,0,0,0.010836363338574424,47.2898896095388,0)" xlink:href="#N"/><use transform="matrix(0.010836363338574424,0,0,0.010836363338574424,59.3615983687107,0)" xlink:href="#aa"/><use transform="matrix(0.010836363338574424,0,0,0.010836363338574424,78.81287056145179,0)" xlink:href="#ab"/><use transform="matrix(0.010836363338574424,0,0,0.010836363338574424,91.2638520374738,0)" xlink:href="#ac"/></g><path fill="#666" d="M973-380H363L226 0H28l556-1456h168L1309 0h-197zM421-538h495l-248-681" id="ad"/><path fill="#666" d="M314-151h633V0H88v-136l597-793H97v-153h820v131" id="ae"/><path fill="#666" d="M491 20c-241-1-355-148-355-398v-704h185v699c0 164 67 246 200 246 141 0 235-53 282-158v-787h185V0H812l-4-107C736-22 630 20 491 20" id="af"/><g id="d"><use transform="matrix(0.010836363338574424,0,0,0.010836363338574424,0,0)" xlink:href="#ad"/><use transform="matrix(0.010836363338574424,0,0,0.010836363338574424,14.47738142033543,0)" xlink:href="#ae"/><use transform="matrix(0.010836363338574424,0,0,0.010836363338574424,25.47629020898847,0)" xlink:href="#af"/><use transform="matrix(0.010836363338574424,0,0,0.010836363338574424,37.710544418238996,0)" xlink:href="#U"/><use transform="matrix(0.010836363338574424,0,0,0.010836363338574424,45.01425330843816,0)" xlink:href="#Q"/></g><path fill="#666" d="M521 20C240 20 96-239 96-550c0-303 147-552 427-552 132 0 235 47 309 140l9-120h169V-26c4 277-183 454-459 452-165-1-334-81-400-187l96-111c79 98 176 147 291 147 180 1 288-109 286-290v-93C750-23 649 20 521 20zm48-965c-209 0-287 178-287 416 0 217 86 392 285 392 117 0 202-53 257-159v-494c-57-103-142-155-255-155" id="ag"/><g id="e"><use transform="matrix(0.010836363338574424,0,0,0.010836363338574424,0,0)" xlink:href="#M"/><use transform="matrix(0.010836363338574424,0,0,0.010836363338574424,13.859708710036688,0)" xlink:href="#Q"/><use transform="matrix(0.010836363338574424,0,0,0.010836363338574424,25.617162932389938,0)" xlink:href="#Q"/><use transform="matrix(0.010836363338574424,0,0,0.010836363338574424,37.37461715474319,0)" xlink:href="#U"/><use transform="matrix(0.010836363338574424,0,0,0.010836363338574424,44.884216948375276,0)" xlink:href="#V"/><use transform="matrix(0.010836363338574424,0,0,0.010836363338574424,50.269889527646754,0)" xlink:href="#X"/><use transform="matrix(0.010836363338574424,0,0,0.010836363338574424,62.51498010023585,0)" xlink:href="#ag"/></g><path fill="#666" d="M362-157h690V0H169v-1456h193v1299" id="ah"/><path fill="#666" d="M584 20C278 26 81-227 91-551c10-320 175-545 491-551 308-5 503 247 494 573-9 322-175 543-492 549zm-2-970c-208 0-305 185-305 421 0 216 106 398 307 398 211 0 307-186 307-420 0-214-109-399-309-399" id="ai"/><g id="f"><use transform="matrix(0.010836363338574424,0,0,0.010836363338574424,0,0)" xlink:href="#ah"/><use transform="matrix(0.010836363338574424,0,0,0.010836363338574424,11.941672399109015,0)" xlink:href="#ai"/><use transform="matrix(0.010836363338574424,0,0,0.010836363338574424,24.59854477856394,0)" xlink:href="#O"/><use transform="matrix(0.010836363338574424,0,0,0.010836363338574424,36.21512627751572,0)" xlink:href="#N"/><use transform="matrix(0.010836363338574424,0,0,0.010836363338574424,48.286835036687634,0)" xlink:href="#R"/><use transform="matrix(0.010836363338574424,0,0,0.010836363338574424,55.53636211019392,0)" xlink:href="#V"/><use transform="matrix(0.010836363338574424,0,0,0.010836363338574424,60.92203468946541,0)" xlink:href="#ai"/><use transform="matrix(0.010836363338574424,0,0,0.010836363338574424,73.57890706892033,0)" xlink:href="#X"/></g><path d="M631-137c179 0 314-70 314-231 0-71-25-127-75-166s-141-77-272-115c-165-47-285-106-360-175s-112-154-112-255c0-245 231-397 495-397 206 0 369 89 449 218 43 68 65 142 65 223H942c0-184-129-283-321-283-172 0-299 76-301 236 0 59 26 109 76 150s135 78 256 113c205 59 345 116 436 256 35 53 50 119 50 193-2 256-231 398-507 390C333 12 90-129 80-422h193c0 187 160 285 358 285" id="aj"/><path d="M277-555c0 244 77 420 297 424 127 2 249-93 255-210h175C980-127 805 20 574 20 258 20 81-222 92-562c11-319 164-533 481-540 237-5 426 165 431 392H829c-7-133-115-242-256-240-209 4-296 166-296 395" id="ak"/><g id="g"><use transform="matrix(0.010850694444444444,0,0,0.010850694444444444,0,0)" xlink:href="#aj"/><use transform="matrix(0.010850694444444444,0,0,0.010850694444444444,13.18359375,0)" xlink:href="#I"/><use transform="matrix(0.010850694444444444,0,0,0.010850694444444444,25.85720486111111,0)" xlink:href="#F"/><use transform="matrix(0.010850694444444444,0,0,0.010850694444444444,38.107638888888886,0)" xlink:href="#L"/><use transform="matrix(0.010850694444444444,0,0,0.010850694444444444,45.42100694444444,0)" xlink:href="#ak"/><use transform="matrix(0.010850694444444444,0,0,0.010850694444444444,57.052951388888886,0)" xlink:href="#K"/></g><path d="M1216-1011c-1 297-202 441-512 441H361V0H169v-1456h537c297-6 510 164 510 445zm-192 2c1-178-126-288-307-289H361v571h345c196 1 318-92 318-282" id="al"/><g id="h"><use transform="matrix(0.010850694444444444,0,0,0.010850694444444444,0,0)" xlink:href="#al"/><use transform="matrix(0.010850694444444444,0,0,0.010850694444444444,13.878038194444445,0)" xlink:href="#I"/><use transform="matrix(0.010850694444444444,0,0,0.010850694444444444,26.551649305555554,0)" xlink:href="#L"/><use transform="matrix(0.010850694444444444,0,0,0.010850694444444444,34.61371527777777,0)" xlink:href="#H"/><use transform="matrix(0.010850694444444444,0,0,0.010850694444444444,41.87282986111111,0)" xlink:href="#G"/></g><g id="i"><use transform="matrix(0.01126015461215933,0,0,0.01126015461215933,0,0)" xlink:href="#E"/><use transform="matrix(0.01126015461215933,0,0,0.01126015461215933,15.009786098008387,0)" xlink:href="#L"/><use transform="matrix(0.01126015461215933,0,0,0.01126015461215933,22.587870151991616,0)" xlink:href="#I"/><use transform="matrix(0.01126015461215933,0,0,0.01126015461215933,35.739730738993714,0)" xlink:href="#G"/><use transform="matrix(0.01126015461215933,0,0,0.01126015461215933,47.63045400943397,0)" xlink:href="#G"/></g><path d="M589-945c-131 0-219 81-264 174V0H140v-1082h175l6 136c83-104 191-156 324-156 229 0 346 129 346 387V0H806v-716c-2-153-65-229-217-229" id="am"/><g id="j"><use transform="matrix(0.01126015461215933,0,0,0.01126015461215933,0,0)" xlink:href="#E"/><use transform="matrix(0.01126015461215933,0,0,0.01126015461215933,15.009786098008387,0)" xlink:href="#I"/><use transform="matrix(0.01126015461215933,0,0,0.01126015461215933,28.161646685010485,0)" xlink:href="#am"/><use transform="matrix(0.01126015461215933,0,0,0.01126015461215933,40.88562139675053,0)" xlink:href="#am"/><use transform="matrix(0.01126015461215933,0,0,0.01126015461215933,53.60959610849057,0)" xlink:href="#K"/><use transform="matrix(0.01126015461215933,0,0,0.01126015461215933,65.82686386268344,0)" xlink:href="#ak"/><use transform="matrix(0.01126015461215933,0,0,0.01126015461215933,77.89774960691824,0)" xlink:href="#H"/><use transform="matrix(0.01126015461215933,0,0,0.01126015461215933,85.43079304245283,0)" xlink:href="#G"/></g><linearGradient gradientUnits="userSpaceOnUse" id="k" x1="4884.69" y1="2155.96" x2="4910.7" y2="2200.99"><stop offset="0%" stop-color="#18884f"/><stop offset="50%" stop-color="#117e43"/><stop offset="100%" stop-color="#0b6631"/></linearGradient><linearGradient gradientUnits="userSpaceOnUse" id="l" x1="4811.79" y1="2149.02" x2="4817.2" y2="2183.17"><stop offset="1.2%" stop-color="#00b7f0"/><stop offset="33.9%" stop-color="#009de5"/><stop offset="75.5%" stop-color="#0082d9"/><stop offset="100%" stop-color="#0078d4"/></linearGradient><linearGradient gradientUnits="userSpaceOnUse" id="m" x1="4823.63" y1="2199.59" x2="4853.68" y2="2182.26"><stop offset="0%" stop-color="#0078d4"/><stop offset="37%" stop-color="#007ad5"/><stop offset="57.3%" stop-color="#0082d9"/><stop offset="73.5%" stop-color="#0090df"/><stop offset="87.5%" stop-color="#00a3e7"/><stop offset="100%" stop-color="#00bcf2"/></linearGradient><linearGradient gradientUnits="userSpaceOnUse" id="n" x1="4815.86" y1="2160.06" x2="4843.28" y2="2207.54"><stop offset="0%" stop-color="#00b7f0"/><stop offset="100%" stop-color="#007cc1"/></linearGradient><path d="M651-255l416-1201h210L737 0H567L28-1456h209" id="an"/><path d="M341 0H156v-1082h185V0zm-91-1264c-68 0-108-42-109-105 0-62 41-107 109-107s110 44 110 107-42 105-110 105" id="ao"/><path d="M561-1102c238-4 403 126 403 351v498c0 99 13 178 38 237V0H808c-11-21-19-59-26-114C696-25 593 20 474 20c-199 0-368-130-365-320 4-251 214-359 490-356h180v-85c-1-135-86-212-229-212-115 0-232 67-233 171H131c20-205 206-316 430-320zM294-326c0 117 90 185 207 185 122 0 239-75 278-162v-222H634c-227 0-340 66-340 199" id="ap"/><path d="M341 0H156v-1536h185V0" id="aq"/><g id="o"><use transform="matrix(0.009812712919287212,0,0,0.009812712919287212,0,0)" xlink:href="#an"/><use transform="matrix(0.009812712919287212,0,0,0.009812712919287212,12.785964933831236,0)" xlink:href="#ao"/><use transform="matrix(0.009812712919287212,0,0,0.009812712919287212,17.66288325471698,0)" xlink:href="#L"/><use transform="matrix(0.009812712919287212,0,0,0.009812712919287212,24.95372895374738,0)" xlink:href="#H"/><use transform="matrix(0.009812712919287212,0,0,0.009812712919287212,31.518433896750523,0)" xlink:href="#F"/><use transform="matrix(0.009812712919287212,0,0,0.009812712919287212,42.596986782625784,0)" xlink:href="#ap"/><use transform="matrix(0.009812712919287212,0,0,0.009812712919287212,53.52834897471174,0)" xlink:href="#aq"/></g><path d="M1288 0h-193L362-1122V0H169v-1456h193l735 1127v-1127h191V0" id="ar"/><path d="M1098-255l208-827h185L1176 0h-150L763-820 507 0H357L43-1082h184l213 810 252-810h149" id="as"/><path d="M442-501L326-380V0H141v-1536h185v929c135-169 291-317 436-475h225L566-630 1036 0H819" id="at"/><g id="p"><use transform="matrix(0.009812712919287212,0,0,0.009812712919287212,0,0)" xlink:href="#ar"/><use transform="matrix(0.009812712919287212,0,0,0.009812712919287212,14.32656086215933,0)" xlink:href="#K"/><use transform="matrix(0.009812712919287212,0,0,0.009812712919287212,24.973354379585953,0)" xlink:href="#H"/><use transform="matrix(0.009812712919287212,0,0,0.009812712919287212,31.5380593225891,0)" xlink:href="#as"/><use transform="matrix(0.009812712919287212,0,0,0.009812712919287212,46.63982450537212,0)" xlink:href="#I"/><use transform="matrix(0.009812712919287212,0,0,0.009812712919287212,58.10107319509958,0)" xlink:href="#L"/><use transform="matrix(0.009812712919287212,0,0,0.009812712919287212,64.90128324816561,0)" xlink:href="#at"/></g><path d="M520 20C244 20 95-247 95-550c0-298 151-550 427-552 127 0 227 43 301 130v-564h185V0H838l-9-116C755-25 652 20 520 20zm48-965c-210 0-288 177-288 416 0 218 87 392 286 392 117 0 203-53 257-158v-497c-55-102-140-153-255-153" id="au"/><g id="q"><use transform="matrix(0.010850694444444444,0,0,0.010850694444444444,0,0)" xlink:href="#E"/><use transform="matrix(0.010850694444444444,0,0,0.010850694444444444,14.463975694444445,0)" xlink:href="#aq"/><use transform="matrix(0.010850694444444444,0,0,0.010850694444444444,19.856770833333332,0)" xlink:href="#I"/><use transform="matrix(0.010850694444444444,0,0,0.010850694444444444,32.53038194444444,0)" xlink:href="#F"/><use transform="matrix(0.010850694444444444,0,0,0.010850694444444444,44.78081597222222,0)" xlink:href="#au"/></g><path d="M703-1476c426 0 599 333 586 795-11 408-187 701-584 701-422 0-587-333-587-793 0-282 106-507 280-617 89-56 190-86 305-86zm2 1333c312 0 393-279 393-632 0-308-116-536-395-536-269 0-394 232-394 523v107c-4 298 123 538 396 538" id="av"/><path d="M525-543H37v-151h488v151" id="aw"/><path d="M1161-1018c0 201-122 330-278 388l342 618V0h-206L703-589H361V0H168v-1456h482c310-2 511 139 511 438zm-193 0c0-187-120-280-313-280H361v552h295c179 3 313-101 312-272" id="ax"/><path d="M632-1102c291 0 422 251 422 573 0 297-141 548-419 549-131 0-235-42-310-125v521H140v-1498h169l9 120c75-93 180-140 314-140zm-53 971c207 0 290-180 290-419 0-218-92-395-292-395-112 0-196 50-252 149v517c55 99 140 148 254 148" id="ay"/><g id="r"><use transform="matrix(0.010850694444444444,0,0,0.010850694444444444,0,0)" xlink:href="#av"/><use transform="matrix(0.010850694444444444,0,0,0.010850694444444444,15.277777777777777,0)" xlink:href="#am"/><use transform="matrix(0.010850694444444444,0,0,0.010850694444444444,27.5390625,0)" xlink:href="#aw"/><use transform="matrix(0.010850694444444444,0,0,0.010850694444444444,33.669704861111114,0)" xlink:href="#ax"/><use transform="matrix(0.010850694444444444,0,0,0.010850694444444444,47.35243055555556,0)" xlink:href="#ap"/><use transform="matrix(0.010850694444444444,0,0,0.010850694444444444,59.44010416666667,0)" xlink:href="#J"/><use transform="matrix(0.010850694444444444,0,0,0.010850694444444444,78.91710069444446,0)" xlink:href="#ay"/></g><path d="M1288 0h-193v-673H361V0H169v-1456h192v626h734v-626h193V0" id="az"/><g id="s"><use transform="matrix(0.01126015461215933,0,0,0.01126015461215933,0,0)" xlink:href="#az"/><use transform="matrix(0.01126015461215933,0,0,0.01126015461215933,16.43982573375262,0)" xlink:href="#I"/><use transform="matrix(0.01126015461215933,0,0,0.01126015461215933,29.591686320754718,0)" xlink:href="#G"/><use transform="matrix(0.01126015461215933,0,0,0.01126015461215933,41.48240959119497,0)" xlink:href="#H"/><use transform="matrix(0.01126015461215933,0,0,0.01126015461215933,49.01545302672956,0)" xlink:href="#K"/><use transform="matrix(0.01126015461215933,0,0,0.01126015461215933,61.23272078092245,0)" xlink:href="#au"/></g><g id="t"><use transform="matrix(0.01126015461215933,0,0,0.01126015461215933,0,0)" xlink:href="#E"/><use transform="matrix(0.01126015461215933,0,0,0.01126015461215933,15.009786098008387,0)" xlink:href="#aq"/><use transform="matrix(0.01126015461215933,0,0,0.01126015461215933,20.606082940251575,0)" xlink:href="#I"/><use transform="matrix(0.01126015461215933,0,0,0.01126015461215933,33.75794352725367,0)" xlink:href="#F"/><use transform="matrix(0.01126015461215933,0,0,0.01126015461215933,46.470658084381554,0)" xlink:href="#au"/></g><g id="u"><use transform="matrix(0.01126015461215933,0,0,0.01126015461215933,0,0)" xlink:href="#E"/><use transform="matrix(0.01126015461215933,0,0,0.01126015461215933,15.009786098008387,0)" xlink:href="#I"/><use transform="matrix(0.01126015461215933,0,0,0.01126015461215933,28.161646685010485,0)" xlink:href="#am"/><use transform="matrix(0.01126015461215933,0,0,0.01126015461215933,40.88562139675053,0)" xlink:href="#am"/><use transform="matrix(0.01126015461215933,0,0,0.01126015461215933,53.60959610849057,0)" xlink:href="#K"/><use transform="matrix(0.01126015461215933,0,0,0.01126015461215933,65.82686386268344,0)" xlink:href="#ak"/><use transform="matrix(0.01126015461215933,0,0,0.01126015461215933,77.89774960691824,0)" xlink:href="#H"/><use transform="matrix(0.01126015461215933,0,0,0.01126015461215933,85.43079304245283,0)" xlink:href="#ao"/><use transform="matrix(0.01126015461215933,0,0,0.01126015461215933,91.02708988469603,0)" xlink:href="#I"/><use transform="matrix(0.01126015461215933,0,0,0.01126015461215933,104.17895047169814,0)" xlink:href="#am"/></g><use transform="matrix(0.01126015461215933,0,0,0.01126015461215933,0,0)" xlink:href="#aw" id="v"/><path d="M494-271l252-811h198L509 167C425 381 299 474 84 421V271c167 16 242-37 283-173l41-110L22-1082h202" id="aA"/><g id="w"><use transform="matrix(0.01126015461215933,0,0,0.01126015461215933,0,0)" xlink:href="#aj"/><use transform="matrix(0.01126015461215933,0,0,0.01126015461215933,13.681087853773585,0)" xlink:href="#K"/><use transform="matrix(0.01126015461215933,0,0,0.01126015461215933,25.898355607966458,0)" xlink:href="#ak"/><use transform="matrix(0.01126015461215933,0,0,0.01126015461215933,37.96924135220126,0)" xlink:href="#I"/><use transform="matrix(0.01126015461215933,0,0,0.01126015461215933,51.121101939203356,0)" xlink:href="#am"/><use transform="matrix(0.01126015461215933,0,0,0.01126015461215933,63.8450766509434,0)" xlink:href="#au"/><use transform="matrix(0.01126015461215933,0,0,0.01126015461215933,76.85055522798743,0)" xlink:href="#ap"/><use transform="matrix(0.01126015461215933,0,0,0.01126015461215933,89.39436746593292,0)" xlink:href="#L"/><use transform="matrix(0.01126015461215933,0,0,0.01126015461215933,97.4003373951782,0)" xlink:href="#aA"/></g><g id="x"><use transform="matrix(0.01126015461215933,0,0,0.01126015461215933,0,0)" xlink:href="#al"/><use transform="matrix(0.01126015461215933,0,0,0.01126015461215933,14.548119758909854,0)" xlink:href="#L"/><use transform="matrix(0.01126015461215933,0,0,0.01126015461215933,22.35140690513627,0)" xlink:href="#ao"/><use transform="matrix(0.01126015461215933,0,0,0.01126015461215933,27.947703747379457,0)" xlink:href="#J"/><use transform="matrix(0.01126015461215933,0,0,0.01126015461215933,48.159681276205454,0)" xlink:href="#ap"/><use transform="matrix(0.01126015461215933,0,0,0.01126015461215933,60.70349351415095,0)" xlink:href="#L"/><use transform="matrix(0.01126015461215933,0,0,0.01126015461215933,68.70946344339623,0)" xlink:href="#aA"/></g><g id="z"><use transform="matrix(0.01126015461215933,0,0,0.01126015461215933,0,0)" xlink:href="#aj"/><use transform="matrix(0.01126015461215933,0,0,0.01126015461215933,13.681087853773585,0)" xlink:href="#K"/><use transform="matrix(0.01126015461215933,0,0,0.01126015461215933,25.898355607966458,0)" xlink:href="#ak"/><use transform="matrix(0.01126015461215933,0,0,0.01126015461215933,37.96924135220126,0)" xlink:href="#I"/><use transform="matrix(0.01126015461215933,0,0,0.01126015461215933,51.121101939203356,0)" xlink:href="#am"/><use transform="matrix(0.01126015461215933,0,0,0.01126015461215933,63.8450766509434,0)" xlink:href="#au"/><use transform="matrix(0.01126015461215933,0,0,0.01126015461215933,76.85055522798743,0)" xlink:href="#ap"/><use transform="matrix(0.01126015461215933,0,0,0.01126015461215933,89.39436746593292,0)" xlink:href="#L"/><use transform="matrix(0.01126015461215933,0,0,0.01126015461215933,97.4003373951782,0)" xlink:href="#aA"/></g><g id="A"><use transform="matrix(0.01126015461215933,0,0,0.01126015461215933,0,0)" xlink:href="#E"/><use transform="matrix(0.01126015461215933,0,0,0.01126015461215933,15.009786098008387,0)" xlink:href="#I"/><use transform="matrix(0.01126015461215933,0,0,0.01126015461215933,28.161646685010485,0)" xlink:href="#am"/><use transform="matrix(0.01126015461215933,0,0,0.01126015461215933,40.88562139675053,0)" xlink:href="#am"/><use transform="matrix(0.01126015461215933,0,0,0.01126015461215933,53.60959610849057,0)" xlink:href="#K"/><use transform="matrix(0.01126015461215933,0,0,0.01126015461215933,65.82686386268344,0)" xlink:href="#ak"/><use transform="matrix(0.01126015461215933,0,0,0.01126015461215933,77.89774960691824,0)" xlink:href="#H"/><use transform="matrix(0.01126015461215933,0,0,0.01126015461215933,85.43079304245283,0)" xlink:href="#ao"/><use transform="matrix(0.01126015461215933,0,0,0.01126015461215933,91.02708988469603,0)" xlink:href="#I"/><use transform="matrix(0.01126015461215933,0,0,0.01126015461215933,104.17895047169814,0)" xlink:href="#am"/></g><path d="M992-673H361v516h733V0H169v-1456h915v158H361v468h631v157" id="aB"/><path d="M503-687l240-395h216L605-547 970 0H756L506-405 256 0H41l365-547-354-535h214" id="aC"/><g id="B"><use transform="matrix(0.012283805031446542,0,0,0.012283805031446542,0,0)" xlink:href="#aB"/><use transform="matrix(0.012283805031446542,0,0,0.012283805031446542,14.298349056603774,0)" xlink:href="#aC"/><use transform="matrix(0.012283805031446542,0,0,0.012283805031446542,26.766411163522015,0)" xlink:href="#ay"/><use transform="matrix(0.012283805031446542,0,0,0.012283805031446542,40.88050314465409,0)" xlink:href="#L"/><use transform="matrix(0.012283805031446542,0,0,0.012283805031446542,49.159787735849065,0)" xlink:href="#K"/><use transform="matrix(0.012283805031446542,0,0,0.012283805031446542,62.48771619496857,0)" xlink:href="#G"/><use transform="matrix(0.012283805031446542,0,0,0.012283805031446542,75.45941430817611,0)" xlink:href="#G"/><use transform="matrix(0.012283805031446542,0,0,0.012283805031446542,88.43111242138366,0)" xlink:href="#ax"/><use transform="matrix(0.012283805031446542,0,0,0.012283805031446542,103.92099056603774,0)" xlink:href="#I"/><use transform="matrix(0.012283805031446542,0,0,0.012283805031446542,118.2684748427673,0)" xlink:href="#F"/><use transform="matrix(0.012283805031446542,0,0,0.012283805031446542,132.13689072327045,0)" xlink:href="#H"/><use transform="matrix(0.012283805031446542,0,0,0.012283805031446542,140.3547562893082,0)" xlink:href="#K"/></g><g id="C"><use transform="matrix(0.012283805031446542,0,0,0.012283805031446542,0,0)" xlink:href="#E"/><use transform="matrix(0.012283805031446542,0,0,0.012283805031446542,16.37431210691824,0)" xlink:href="#ao"/><use transform="matrix(0.012283805031446542,0,0,0.012283805031446542,22.47936320754717,0)" xlink:href="#L"/><use transform="matrix(0.012283805031446542,0,0,0.012283805031446542,30.75864779874214,0)" xlink:href="#ak"/><use transform="matrix(0.012283805031446542,0,0,0.012283805031446542,43.926886792452834,0)" xlink:href="#F"/><use transform="matrix(0.012283805031446542,0,0,0.012283805031446542,57.79530267295598,0)" xlink:href="#ao"/><use transform="matrix(0.012283805031446542,0,0,0.012283805031446542,63.90035377358491,0)" xlink:href="#H"/></g><g id="D"><use transform="matrix(0.01126015461215933,0,0,0.01126015461215933,0,0)" xlink:href="#al"/><use transform="matrix(0.01126015461215933,0,0,0.01126015461215933,14.548119758909854,0)" xlink:href="#L"/><use transform="matrix(0.01126015461215933,0,0,0.01126015461215933,22.35140690513627,0)" xlink:href="#ao"/><use transform="matrix(0.01126015461215933,0,0,0.01126015461215933,27.947703747379457,0)" xlink:href="#J"/><use transform="matrix(0.01126015461215933,0,0,0.01126015461215933,48.159681276205454,0)" xlink:href="#ap"/><use transform="matrix(0.01126015461215933,0,0,0.01126015461215933,60.70349351415095,0)" xlink:href="#L"/><use transform="matrix(0.01126015461215933,0,0,0.01126015461215933,68.70946344339623,0)" xlink:href="#aA"/></g></defs></g></svg>